<svg xmlns="http://www.w3.org/2000/svg" xmlns:xlink="http://www.w3.org/1999/xlink" viewBox="70 120 290 47" preserveAspectRatio="xMidYMid meet" version="1.0"><defs><g/><clipPath id="5a8d5c9bee"><path d="M 99.5 126.625 L 128.75 126.625 L 128.75 155.875 L 99.5 155.875 Z M 99.5 126.625 " clip-rule="nonzero"/></clipPath></defs><g fill="#2f647e" fill-opacity="1"><g transform="translate(77.091799, 155.999987)"><g><path d="M 12.113281 -24.425781 C 12.242188 -25.359375 12.503906 -26.21875 12.890625 -26.996094 C 13.382812 -27.976562 14.050781 -28.789062 14.902344 -29.441406 C 16.296875 -30.507812 17.886719 -31.023438 19.675781 -30.980469 C 21.09375 -30.949219 22.445312 -30.585938 23.726562 -29.882812 C 25.136719 -29.109375 26.238281 -28.015625 27.03125 -26.59375 C 27.90625 -25.027344 28.210938 -23.304688 27.941406 -21.433594 C 26.851562 -14.101562 25.5 -6.828125 23.882812 0.378906 C 23.484375 2.128906 22.59375 3.558594 21.203125 4.671875 C 20.03125 5.609375 18.691406 6.191406 17.1875 6.421875 C 15.644531 6.65625 14.164062 6.480469 12.75 5.890625 C 11.855469 5.519531 11.066406 4.996094 10.386719 4.316406 C 9.75 3.679688 9.238281 2.933594 8.851562 2.082031 L 8.789062 1.941406 C 8.203125 0.535156 7.601562 -0.859375 6.992188 -2.25 L 5.109375 -6.539062 L 9.808594 -8.597656 L 14.808594 -7.445312 C 14.425781 -5.777344 14.050781 -4.105469 13.691406 -2.425781 C 13.339844 -0.769531 13.011719 0.890625 12.707031 2.558594 C 12.542969 3.480469 12.246094 4.328125 11.8125 5.097656 C 11.292969 6.023438 10.609375 6.792969 9.765625 7.402344 C 8.398438 8.390625 6.871094 8.882812 5.179688 8.882812 C 3.664062 8.882812 2.242188 8.492188 0.90625 7.710938 C -0.445312 6.917969 -1.496094 5.835938 -2.253906 4.457031 C -2.726562 3.59375 -3.019531 2.664062 -3.128906 1.675781 C -3.226562 0.804688 -3.179688 -0.0859375 -2.984375 -0.996094 L 2.03125 0.078125 L -3.011719 -0.855469 C -1.839844 -7.195312 -0.402344 -13.488281 1.304688 -19.722656 C 1.761719 -21.394531 2.671875 -22.761719 4.042969 -23.824219 C 5.179688 -24.710938 6.457031 -25.277344 7.875 -25.53125 C 9.464844 -25.8125 10.984375 -25.644531 12.441406 -25.023438 C 13.351562 -24.636719 14.152344 -24.085938 14.832031 -23.367188 C 15.449219 -22.722656 15.941406 -21.972656 16.3125 -21.117188 L 19.753906 -13.179688 L 15.046875 -11.136719 L 10.015625 -12.144531 C 10.421875 -14.175781 10.796875 -16.214844 11.140625 -18.257812 C 11.488281 -20.324219 11.8125 -22.398438 12.121094 -24.476562 Z M 22.269531 -22.972656 C 21.953125 -20.828125 21.617188 -18.691406 21.257812 -16.5625 C 20.898438 -14.414062 20.503906 -12.269531 20.078125 -10.132812 L 16.863281 5.945312 L 6.902344 -17.027344 C 7.015625 -16.769531 7.179688 -16.523438 7.402344 -16.292969 C 7.695312 -15.984375 8.039062 -15.746094 8.429688 -15.582031 C 8.84375 -15.40625 9.257812 -15.355469 9.671875 -15.429688 C 9.917969 -15.472656 10.140625 -15.570312 10.339844 -15.726562 C 10.773438 -16.0625 11.058594 -16.492188 11.203125 -17.015625 C 9.570312 -11.058594 8.195312 -5.046875 7.078125 1.011719 L 7.046875 1.152344 C 7.085938 0.972656 7.09375 0.765625 7.066406 0.53125 C 7.027344 0.179688 6.921875 -0.152344 6.746094 -0.472656 C 6.589844 -0.753906 6.371094 -0.980469 6.089844 -1.144531 C 5.824219 -1.300781 5.519531 -1.378906 5.179688 -1.378906 C 4.660156 -1.378906 4.183594 -1.222656 3.757812 -0.914062 C 3.378906 -0.644531 3.082031 -0.3125 2.863281 0.078125 C 2.730469 0.316406 2.648438 0.53125 2.613281 0.722656 C 2.933594 -1.046875 3.285156 -2.8125 3.660156 -4.570312 C 4.03125 -6.304688 4.414062 -8.03125 4.8125 -9.75 L 8.292969 -24.835938 L 16.378906 -6.386719 C 17.019531 -4.9375 17.644531 -3.480469 18.253906 -2.019531 L 13.523438 -0.0390625 L 18.191406 -2.160156 C 18.066406 -2.441406 17.882812 -2.699219 17.644531 -2.9375 C 17.363281 -3.21875 17.039062 -3.4375 16.679688 -3.585938 C 16.332031 -3.730469 15.988281 -3.777344 15.644531 -3.722656 C 15.335938 -3.675781 15.050781 -3.550781 14.792969 -3.339844 C 14.316406 -2.960938 14.007812 -2.46875 13.871094 -1.863281 C 15.433594 -8.828125 16.738281 -15.835938 17.785156 -22.886719 C 17.761719 -22.734375 17.769531 -22.5625 17.796875 -22.371094 C 17.84375 -22.097656 17.933594 -21.839844 18.070312 -21.59375 C 18.238281 -21.292969 18.480469 -21.058594 18.796875 -20.882812 C 18.980469 -20.78125 19.199219 -20.730469 19.445312 -20.722656 C 20.0625 -20.710938 20.621094 -20.898438 21.132812 -21.289062 C 21.539062 -21.601562 21.851562 -21.972656 22.066406 -22.40625 C 22.183594 -22.636719 22.253906 -22.839844 22.277344 -23.023438 Z M 22.269531 -22.972656 "/></g></g></g><g fill="#2f647e" fill-opacity="1"><g transform="translate(101.948021, 155.999987)"><g><path d="M 26.097656 -26.566406 C 27.058594 -25.007812 27.714844 -23.285156 28.0625 -21.394531 C 28.363281 -19.789062 28.496094 -18.164062 28.460938 -16.527344 C 28.429688 -14.996094 28.304688 -13.550781 28.082031 -12.191406 C 27.742188 -9.9375 27.035156 -7.789062 25.957031 -5.742188 C 24.832031 -3.597656 23.328125 -1.746094 21.441406 -0.1875 C 19.582031 1.335938 17.457031 2.441406 15.058594 3.132812 C 12.34375 3.914062 9.671875 3.886719 7.046875 3.054688 C 5.195312 2.480469 3.570312 1.519531 2.175781 0.167969 C 0.996094 -0.976562 0.00390625 -2.277344 -0.789062 -3.738281 C -1.546875 -5.125 -2.109375 -6.550781 -2.476562 -8.019531 C -2.875 -9.476562 -3.105469 -11.15625 -3.171875 -13.050781 C -3.238281 -14.890625 -3.109375 -16.761719 -2.792969 -18.664062 C -2.460938 -20.65625 -1.910156 -22.523438 -1.136719 -24.273438 C -0.226562 -26.324219 1.019531 -28.042969 2.609375 -29.425781 L 5.980469 -25.558594 L 2.308594 -29.140625 C 3.964844 -30.839844 5.941406 -32.039062 8.242188 -32.734375 C 10.34375 -33.375 12.496094 -33.589844 14.703125 -33.382812 C 16.960938 -33.171875 19.066406 -32.519531 21.027344 -31.425781 C 23.128906 -30.25 24.816406 -28.636719 26.089844 -26.582031 Z M 17.371094 -21.175781 C 17.027344 -21.726562 16.578125 -22.15625 16.023438 -22.46875 C 15.324219 -22.859375 14.566406 -23.09375 13.75 -23.167969 C 12.882812 -23.25 12.039062 -23.164062 11.222656 -22.917969 C 10.605469 -22.730469 10.082031 -22.417969 9.652344 -21.976562 L 9.507812 -21.828125 L 9.351562 -21.691406 C 8.90625 -21.304688 8.539062 -20.785156 8.25 -20.125 C 7.824219 -19.164062 7.515625 -18.117188 7.328125 -16.976562 C 7.121094 -15.753906 7.039062 -14.5625 7.082031 -13.40625 C 7.121094 -12.308594 7.25 -11.339844 7.476562 -10.507812 C 7.632812 -9.890625 7.878906 -9.269531 8.214844 -8.652344 C 8.515625 -8.105469 8.878906 -7.625 9.3125 -7.203125 C 9.535156 -6.992188 9.8125 -6.832031 10.152344 -6.726562 C 10.804688 -6.519531 11.496094 -6.519531 12.21875 -6.726562 C 13.261719 -7.027344 14.15625 -7.484375 14.902344 -8.097656 C 15.730469 -8.777344 16.386719 -9.585938 16.875 -10.515625 C 17.414062 -11.542969 17.777344 -12.652344 17.957031 -13.839844 C 18.101562 -14.71875 18.183594 -15.683594 18.203125 -16.734375 C 18.222656 -17.671875 18.144531 -18.605469 17.976562 -19.523438 C 17.855469 -20.160156 17.652344 -20.71875 17.359375 -21.191406 Z M 11.101562 -12.410156 C 11.421875 -12.714844 11.660156 -13.058594 11.808594 -13.445312 C 12.0625 -14.09375 12.21875 -14.78125 12.28125 -15.507812 C 12.351562 -16.339844 12.335938 -17.140625 12.230469 -17.910156 C 12.226562 -17.945312 12.21875 -17.972656 12.214844 -17.992188 C 12.21875 -17.984375 12.222656 -17.96875 12.234375 -17.949219 C 12.265625 -17.878906 12.3125 -17.8125 12.371094 -17.757812 C 12.535156 -17.59375 12.726562 -17.476562 12.941406 -17.398438 C 13.015625 -17.371094 13.082031 -17.355469 13.140625 -17.347656 C 13.148438 -17.34375 13.15625 -17.34375 13.160156 -17.34375 C 13.152344 -17.34375 13.140625 -17.34375 13.125 -17.34375 C 13.222656 -17.34375 13.332031 -17.371094 13.445312 -17.433594 C 13.46875 -17.445312 13.5 -17.476562 13.539062 -17.527344 L 9.457031 -20.636719 L 13.621094 -17.636719 C 13.558594 -17.546875 13.496094 -17.382812 13.441406 -17.148438 C 13.269531 -16.390625 13.140625 -15.699219 13.058594 -15.070312 C 12.910156 -13.964844 12.964844 -12.882812 13.226562 -11.816406 C 13.273438 -11.644531 13.351562 -11.441406 13.457031 -11.203125 C 13.316406 -11.515625 13.101562 -11.78125 12.808594 -12 C 12.542969 -12.195312 12.257812 -12.324219 11.957031 -12.394531 C 11.691406 -12.453125 11.449219 -12.464844 11.226562 -12.429688 C 11.171875 -12.421875 11.109375 -12.386719 11.042969 -12.332031 L 14.34375 -8.402344 L 10.714844 -12.03125 L 11.042969 -12.359375 Z M 18.132812 -4.941406 L 14.617188 -8.675781 L 18.246094 -5.046875 L 17.8125 -4.617188 L 17.644531 -4.472656 C 16.273438 -3.324219 14.6875 -2.601562 12.886719 -2.304688 C 11.792969 -2.125 10.726562 -2.152344 9.6875 -2.386719 C 8.609375 -2.632812 7.597656 -3.101562 6.652344 -3.789062 C 5.527344 -4.632812 4.675781 -5.707031 4.089844 -7.011719 C 3.753906 -7.761719 3.480469 -8.546875 3.265625 -9.363281 C 2.691406 -11.6875 2.566406 -14.042969 2.886719 -16.429688 C 3.011719 -17.367188 3.195312 -18.367188 3.441406 -19.433594 C 3.804688 -21.019531 4.421875 -22.421875 5.292969 -23.632812 L 5.335938 -23.691406 L 5.378906 -23.746094 C 6.25 -24.886719 7.335938 -25.804688 8.636719 -26.496094 C 10.027344 -27.234375 11.449219 -27.601562 12.90625 -27.601562 C 14.148438 -27.628906 15.3125 -27.445312 16.398438 -27.058594 C 17.597656 -26.628906 18.652344 -25.96875 19.558594 -25.078125 C 21.136719 -23.527344 22.082031 -21.601562 22.398438 -19.296875 C 22.605469 -17.773438 22.640625 -16.21875 22.503906 -14.625 C 22.355469 -12.925781 21.980469 -11.296875 21.371094 -9.730469 C 20.664062 -7.902344 19.582031 -6.304688 18.132812 -4.941406 Z M 18.132812 -4.941406 "/></g></g></g><g fill="#2f647e" fill-opacity="1"><g transform="translate(127.23414, 155.999987)"><g><path d="M 33.976562 -22.019531 C 34.507812 -17.523438 34.332031 -13.039062 33.445312 -8.574219 C 33.175781 -7.347656 32.871094 -6.125 32.535156 -4.914062 C 32.132812 -3.476562 31.597656 -2.089844 30.929688 -0.753906 C 30.148438 0.808594 29.144531 2.1875 27.917969 3.375 C 26.574219 4.671875 25.039062 5.628906 23.308594 6.242188 C 21.539062 6.867188 19.734375 7.082031 17.886719 6.878906 C 15.957031 6.664062 14.164062 5.984375 12.511719 4.839844 C 11.566406 4.179688 10.746094 3.402344 10.042969 2.515625 L 14.070312 -0.664062 L 17.1875 3.410156 C 15.699219 4.546875 14.0625 5.3125 12.269531 5.710938 C 10.269531 6.15625 8.285156 6.039062 6.316406 5.355469 C 4.359375 4.679688 2.621094 3.429688 1.101562 1.605469 C -0.0429688 0.175781 -0.90625 -1.382812 -1.488281 -3.074219 C -1.988281 -4.519531 -2.34375 -6.003906 -2.558594 -7.527344 C -2.738281 -8.808594 -2.886719 -10.046875 -2.996094 -11.25 C -3.207031 -13.476562 -3.234375 -15.703125 -3.085938 -17.929688 C -2.941406 -20.089844 -2.667969 -22.234375 -2.265625 -24.363281 C -2.117188 -25.234375 -1.835938 -26.046875 -1.429688 -26.808594 C -0.921875 -27.757812 -0.246094 -28.542969 0.59375 -29.171875 C 1.992188 -30.207031 3.578125 -30.707031 5.347656 -30.667969 C 6.820312 -30.636719 8.195312 -30.253906 9.476562 -29.519531 C 10.828125 -28.738281 11.886719 -27.65625 12.648438 -26.265625 C 13.519531 -24.671875 13.792969 -22.90625 13.457031 -20.976562 C 13.136719 -19.230469 12.960938 -17.484375 12.925781 -15.730469 C 12.894531 -14.015625 13.019531 -12.316406 13.304688 -10.625 L 13.554688 -8.996094 C 13.609375 -8.625 13.691406 -8.28125 13.804688 -7.964844 C 13.707031 -8.242188 13.535156 -8.523438 13.292969 -8.8125 C 12.8125 -9.382812 12.199219 -9.785156 11.457031 -10.015625 C 10.949219 -10.1875 10.375 -10.226562 9.734375 -10.136719 C 8.867188 -10.011719 8.113281 -9.660156 7.464844 -9.078125 C 7.035156 -8.695312 6.742188 -8.269531 6.585938 -7.796875 C 6.609375 -7.875 6.628906 -7.949219 6.636719 -8.023438 C 6.644531 -8.078125 6.648438 -8.109375 6.648438 -8.117188 C 6.644531 -8.019531 6.648438 -7.898438 6.664062 -7.757812 L 6.652344 -7.871094 L 6.644531 -7.984375 C 6.582031 -8.9375 6.664062 -9.839844 6.890625 -10.6875 C 7.171875 -11.746094 7.65625 -12.679688 8.347656 -13.492188 C 9.429688 -14.757812 10.777344 -15.597656 12.386719 -16.011719 C 13.777344 -16.367188 15.179688 -16.371094 16.597656 -16.023438 C 18.164062 -15.640625 19.511719 -14.851562 20.636719 -13.660156 C 21.90625 -12.316406 22.609375 -10.652344 22.746094 -8.675781 L 22.757812 -8.5 L 22.757812 -8.324219 C 22.757812 -8.167969 22.769531 -7.902344 22.800781 -7.527344 C 22.820312 -7.273438 22.859375 -7.019531 22.917969 -6.761719 C 22.84375 -7.089844 22.660156 -7.421875 22.367188 -7.753906 C 21.792969 -8.410156 21.074219 -8.84375 20.210938 -9.054688 C 19.53125 -9.222656 18.875 -9.222656 18.246094 -9.046875 L 18.308594 -9.066406 L 18.375 -9.082031 C 17.894531 -8.960938 17.464844 -8.746094 17.085938 -8.4375 C 16.816406 -8.214844 16.605469 -7.976562 16.453125 -7.71875 C 16.5625 -7.902344 16.648438 -8.109375 16.710938 -8.339844 C 16.90625 -9.039062 17.078125 -9.625 17.222656 -10.089844 L 22.121094 -8.558594 L 17.1875 -9.960938 C 17.683594 -11.714844 17.988281 -13.480469 18.09375 -15.257812 C 18.207031 -17.101562 18.148438 -18.949219 17.925781 -20.804688 C 17.824219 -21.78125 17.863281 -22.6875 18.046875 -23.523438 C 18.273438 -24.566406 18.703125 -25.503906 19.335938 -26.332031 C 20.394531 -27.714844 21.777344 -28.628906 23.488281 -29.066406 C 24.902344 -29.425781 26.339844 -29.417969 27.792969 -29.039062 C 29.265625 -28.65625 30.550781 -27.925781 31.65625 -26.855469 C 32.996094 -25.550781 33.773438 -23.921875 33.984375 -21.964844 Z M 23.78125 -20.871094 C 23.800781 -20.683594 23.859375 -20.488281 23.953125 -20.277344 C 24.089844 -19.984375 24.273438 -19.722656 24.507812 -19.496094 C 24.695312 -19.3125 24.929688 -19.183594 25.203125 -19.109375 C 25.457031 -19.042969 25.734375 -19.046875 26.03125 -19.125 C 26.617188 -19.273438 27.105469 -19.601562 27.484375 -20.097656 C 27.78125 -20.484375 27.976562 -20.898438 28.070312 -21.34375 C 28.121094 -21.578125 28.136719 -21.808594 28.113281 -22.03125 C 28.410156 -19.5625 28.484375 -17.097656 28.335938 -14.640625 C 28.183594 -12.117188 27.757812 -9.625 27.054688 -7.15625 L 27.039062 -7.09375 L 27.015625 -7.027344 C 26.902344 -6.660156 26.761719 -6.175781 26.59375 -5.574219 C 26.292969 -4.503906 25.871094 -3.496094 25.324219 -2.5625 C 24.847656 -1.742188 24.265625 -1.050781 23.570312 -0.484375 C 22.765625 0.171875 21.863281 0.625 20.863281 0.875 L 19.621094 -4.105469 L 20.992188 0.839844 C 19.894531 1.144531 18.820312 1.167969 17.765625 0.90625 C 16.53125 0.605469 15.492188 -0.03125 14.644531 -1 C 13.804688 -1.957031 13.230469 -3.109375 12.921875 -4.453125 C 12.746094 -5.214844 12.628906 -5.976562 12.570312 -6.738281 C 12.519531 -7.378906 12.496094 -7.90625 12.496094 -8.324219 L 17.625 -8.324219 L 12.507812 -7.972656 C 12.519531 -7.816406 12.5625 -7.640625 12.640625 -7.449219 C 12.761719 -7.144531 12.9375 -6.871094 13.171875 -6.621094 C 13.433594 -6.34375 13.765625 -6.152344 14.160156 -6.058594 C 14.40625 -5.996094 14.664062 -6.003906 14.929688 -6.070312 C 15.421875 -6.195312 15.828125 -6.449219 16.15625 -6.832031 C 16.46875 -7.203125 16.6875 -7.609375 16.804688 -8.050781 C 16.867188 -8.289062 16.894531 -8.496094 16.882812 -8.664062 L 11.765625 -8.324219 L 16.863281 -8.890625 C 16.933594 -8.25 16.917969 -7.523438 16.8125 -6.710938 C 16.71875 -5.976562 16.554688 -5.257812 16.316406 -4.554688 C 15.902344 -3.300781 15.230469 -2.261719 14.304688 -1.433594 C 13.410156 -0.632812 12.371094 -0.148438 11.183594 0.0234375 C 10.226562 0.160156 9.296875 0.078125 8.398438 -0.222656 C 7.238281 -0.585938 6.257812 -1.242188 5.457031 -2.191406 C 4.894531 -2.855469 4.453125 -3.640625 4.132812 -4.539062 C 3.804688 -5.472656 3.5625 -6.445312 3.410156 -7.457031 L 3.1875 -8.917969 C 2.796875 -11.238281 2.621094 -13.574219 2.667969 -15.925781 C 2.710938 -18.238281 2.9375 -20.503906 3.347656 -22.71875 C 3.324219 -22.585938 3.324219 -22.429688 3.347656 -22.242188 C 3.390625 -21.929688 3.488281 -21.628906 3.648438 -21.335938 C 3.8125 -21.042969 4.046875 -20.804688 4.359375 -20.625 C 4.597656 -20.488281 4.851562 -20.417969 5.125 -20.410156 C 5.699219 -20.398438 6.226562 -20.574219 6.714844 -20.933594 C 7.097656 -21.21875 7.398438 -21.5625 7.613281 -21.964844 C 7.730469 -22.179688 7.796875 -22.34375 7.816406 -22.457031 C 7.488281 -20.730469 7.269531 -18.996094 7.152344 -17.246094 C 7.039062 -15.566406 7.0625 -13.882812 7.21875 -12.199219 C 7.316406 -11.160156 7.441406 -10.082031 7.601562 -8.964844 C 7.722656 -8.089844 7.925781 -7.242188 8.210938 -6.421875 C 8.410156 -5.847656 8.667969 -5.363281 8.984375 -4.964844 C 9.175781 -4.730469 9.355469 -4.554688 9.519531 -4.433594 C 9.589844 -4.382812 9.636719 -4.351562 9.667969 -4.339844 C 9.808594 -4.292969 9.933594 -4.28125 10.046875 -4.304688 C 10.363281 -4.375 10.667969 -4.519531 10.953125 -4.738281 L 14.964844 -7.808594 L 18.097656 -3.84375 C 18.175781 -3.742188 18.265625 -3.65625 18.363281 -3.589844 C 18.589844 -3.433594 18.800781 -3.34375 19.007812 -3.320312 C 19.296875 -3.289062 19.585938 -3.324219 19.878906 -3.429688 C 20.207031 -3.542969 20.507812 -3.734375 20.78125 -4 C 21.167969 -4.375 21.492188 -4.824219 21.753906 -5.34375 C 22.128906 -6.089844 22.425781 -6.867188 22.652344 -7.671875 C 22.9375 -8.699219 23.179688 -9.667969 23.382812 -10.574219 C 24.058594 -13.976562 24.191406 -17.390625 23.789062 -20.8125 Z M 23.78125 -20.871094 "/></g></g></g><g fill="#2f647e" fill-opacity="1"><g transform="translate(170.22445, 155.999987)"><g><path d="M 16.882812 -14.847656 C 17.800781 -14.914062 18.671875 -14.839844 19.496094 -14.636719 C 20.511719 -14.382812 21.421875 -13.9375 22.222656 -13.300781 C 23.542969 -12.25 24.429688 -10.898438 24.882812 -9.246094 C 25.277344 -7.789062 25.28125 -6.324219 24.894531 -4.839844 C 24.492188 -3.289062 23.703125 -1.964844 22.53125 -0.859375 C 21.191406 0.40625 19.546875 1.109375 17.601562 1.246094 C 15.8125 1.367188 14.0625 1.585938 12.351562 1.914062 C 10.59375 2.25 8.835938 2.667969 7.085938 3.171875 C 5.457031 3.636719 3.816406 3.566406 2.167969 2.957031 C 0.691406 2.410156 -0.539062 1.53125 -1.523438 0.320312 C -2.144531 -0.449219 -2.59375 -1.296875 -2.875 -2.230469 C -3.140625 -3.125 -3.238281 -4.058594 -3.160156 -5.019531 L -2.230469 -14.269531 L -1.355469 -23.394531 C -1.148438 -25.332031 -0.410156 -26.953125 0.855469 -28.253906 C 1.988281 -29.421875 3.339844 -30.195312 4.902344 -30.570312 C 6.324219 -30.910156 7.726562 -30.902344 9.109375 -30.550781 C 10.78125 -30.121094 12.152344 -29.234375 13.222656 -27.890625 C 13.878906 -27.0625 14.332031 -26.117188 14.570312 -25.058594 C 14.765625 -24.210938 14.8125 -23.3125 14.71875 -22.375 L 14.015625 -15.15625 L 13.3125 -7.945312 L 8.207031 -8.441406 L 7.140625 -13.460938 C 10.308594 -14.132812 13.542969 -14.59375 16.84375 -14.847656 Z M 17.625 -4.617188 C 14.777344 -4.398438 11.996094 -4 9.273438 -3.421875 L 2.421875 -1.96875 L 3.804688 -16.148438 L 4.511719 -23.429688 C 4.492188 -23.246094 4.511719 -23.027344 4.570312 -22.777344 C 4.671875 -22.320312 4.878906 -21.898438 5.1875 -21.511719 C 5.550781 -21.050781 6.011719 -20.75 6.566406 -20.609375 C 6.824219 -20.542969 7.066406 -20.535156 7.289062 -20.589844 C 7.65625 -20.675781 7.964844 -20.851562 8.214844 -21.105469 C 8.421875 -21.320312 8.585938 -21.5625 8.703125 -21.828125 C 8.785156 -22.019531 8.835938 -22.210938 8.859375 -22.410156 L 7.976562 -13.246094 L 7.066406 -4.203125 C 7.09375 -4.515625 7.054688 -4.835938 6.957031 -5.167969 C 6.847656 -5.53125 6.679688 -5.859375 6.445312 -6.144531 C 6.246094 -6.390625 6.007812 -6.566406 5.726562 -6.667969 C 5.277344 -6.835938 4.785156 -6.839844 4.25 -6.6875 C 6.300781 -7.28125 8.363281 -7.773438 10.433594 -8.167969 C 12.554688 -8.570312 14.699219 -8.84375 16.871094 -8.984375 C 16.691406 -8.972656 16.5 -8.925781 16.292969 -8.839844 C 16 -8.722656 15.730469 -8.546875 15.496094 -8.324219 C 15.234375 -8.082031 15.058594 -7.78125 14.96875 -7.429688 C 14.894531 -7.148438 14.898438 -6.851562 14.984375 -6.542969 C 15.121094 -6.035156 15.40625 -5.609375 15.84375 -5.265625 C 16.199219 -4.980469 16.589844 -4.785156 17.007812 -4.679688 C 17.234375 -4.625 17.425781 -4.601562 17.589844 -4.613281 Z M 17.625 -4.617188 "/></g></g></g><g fill="#2f647e" fill-opacity="1"><g transform="translate(192.227672, 155.999987)"><g><path d="M -1.386719 -24.621094 C -1.179688 -26.550781 -0.429688 -28.164062 0.867188 -29.460938 C 1.964844 -30.5625 3.265625 -31.304688 4.761719 -31.695312 C 6.207031 -32.074219 7.640625 -32.085938 9.0625 -31.730469 C 10.820312 -31.289062 12.234375 -30.351562 13.300781 -28.914062 C 13.910156 -28.09375 14.324219 -27.179688 14.546875 -26.167969 C 14.730469 -25.328125 14.773438 -24.445312 14.675781 -23.527344 C 13.929688 -16.550781 13.351562 -9.558594 12.9375 -2.550781 C 12.800781 -0.570312 12.121094 1.089844 10.898438 2.425781 C 9.78125 3.648438 8.421875 4.457031 6.828125 4.847656 C 5.417969 5.191406 4.019531 5.1875 2.625 4.839844 C 0.964844 4.425781 -0.414062 3.558594 -1.507812 2.238281 C -2.171875 1.433594 -2.640625 0.523438 -2.917969 -0.5 C -3.148438 -1.355469 -3.230469 -2.257812 -3.164062 -3.207031 C -2.746094 -10.339844 -2.152344 -17.476562 -1.386719 -24.621094 Z M 8.8125 -23.527344 C 8.066406 -16.550781 7.488281 -9.539062 7.070312 -2.5 C 7.085938 -2.691406 7.058594 -2.914062 6.992188 -3.164062 C 6.878906 -3.582031 6.679688 -3.960938 6.394531 -4.308594 C 6.054688 -4.714844 5.628906 -4.984375 5.113281 -5.113281 C 4.867188 -5.175781 4.625 -5.175781 4.390625 -5.121094 C 3.964844 -5.015625 3.613281 -4.808594 3.328125 -4.496094 C 3.101562 -4.25 2.933594 -3.980469 2.816406 -3.683594 C 2.746094 -3.503906 2.707031 -3.328125 2.695312 -3.152344 C 3.117188 -10.324219 3.710938 -17.480469 4.472656 -24.621094 C 4.453125 -24.433594 4.472656 -24.214844 4.527344 -23.964844 C 4.617188 -23.546875 4.796875 -23.15625 5.066406 -22.792969 C 5.257812 -22.535156 5.492188 -22.316406 5.769531 -22.132812 C 6.027344 -21.964844 6.296875 -21.84375 6.570312 -21.773438 C 6.847656 -21.707031 7.105469 -21.703125 7.351562 -21.769531 C 7.652344 -21.847656 7.910156 -21.992188 8.121094 -22.207031 C 8.351562 -22.433594 8.527344 -22.691406 8.65625 -22.976562 C 8.742188 -23.175781 8.796875 -23.359375 8.8125 -23.527344 Z M 8.8125 -23.527344 "/></g></g></g><g fill="#2f647e" fill-opacity="1"><g transform="translate(203.795977, 155.999987)"><g><path d="M 17.457031 -21.128906 C 19.617188 -19.664062 21.320312 -17.761719 22.5625 -15.425781 C 23.898438 -12.917969 24.425781 -10.25 24.136719 -7.414062 C 23.835938 -4.835938 22.941406 -2.609375 21.453125 -0.726562 C 20.082031 1.007812 18.398438 2.359375 16.40625 3.328125 C 14.480469 4.257812 12.445312 4.773438 10.292969 4.871094 C 8.09375 4.96875 5.976562 4.601562 3.949219 3.765625 C 1.742188 2.859375 -0.0976562 1.414062 -1.574219 -0.570312 L 2.539062 -3.632812 L -1.5 -0.472656 C -2.09375 -1.234375 -2.535156 -2.035156 -2.820312 -2.878906 C -3.175781 -3.933594 -3.277344 -5.003906 -3.125 -6.082031 C -2.894531 -7.75 -2.1875 -9.191406 -1.007812 -10.410156 C 0.0351562 -11.488281 1.300781 -12.234375 2.785156 -12.65625 C 4.269531 -13.074219 5.765625 -13.09375 7.269531 -12.710938 C 9.0625 -12.25 10.539062 -11.234375 11.707031 -9.652344 C 11.261719 -10.265625 10.695312 -10.714844 10.003906 -11.003906 C 9.679688 -11.140625 9.378906 -11.214844 9.101562 -11.234375 C 9.289062 -11.222656 9.476562 -11.230469 9.667969 -11.261719 C 9.820312 -11.285156 9.929688 -11.304688 10 -11.324219 C 9.902344 -11.296875 9.769531 -11.25 9.601562 -11.175781 L 11.6875 -6.488281 L 9.480469 -11.121094 C 9.015625 -10.898438 8.65625 -10.550781 8.398438 -10.074219 C 8.152344 -9.609375 8.058594 -9.132812 8.121094 -8.636719 L 8.113281 -8.695312 L 8.109375 -8.753906 C 8.125 -8.601562 8.171875 -8.433594 8.25 -8.253906 C 8.359375 -8.003906 8.507812 -7.777344 8.699219 -7.578125 C 8.601562 -7.679688 8.464844 -7.78125 8.289062 -7.882812 C 7.738281 -8.199219 7.183594 -8.503906 6.621094 -8.796875 C 5.667969 -9.292969 4.816406 -9.855469 4.0625 -10.480469 L 4.011719 -10.523438 L 3.957031 -10.570312 C 1.804688 -12.464844 0.46875 -14.632812 -0.0546875 -17.082031 C -0.542969 -19.378906 -0.382812 -21.65625 0.429688 -23.914062 C 1.148438 -25.914062 2.253906 -27.71875 3.746094 -29.324219 C 5.222656 -30.914062 6.917969 -32.152344 8.839844 -33.035156 C 10.617188 -33.890625 12.417969 -34.085938 14.230469 -33.613281 C 15.730469 -33.222656 17.019531 -32.480469 18.109375 -31.394531 C 19.179688 -30.324219 19.914062 -29.0625 20.308594 -27.613281 C 20.761719 -25.949219 20.679688 -24.324219 20.058594 -22.738281 C 19.679688 -21.765625 19.105469 -20.910156 18.335938 -20.175781 C 17.703125 -19.570312 16.957031 -19.070312 16.101562 -18.675781 C 15.863281 -18.5625 15.535156 -18.375 15.117188 -18.117188 C 15.085938 -18.097656 15.0625 -18.082031 15.050781 -18.070312 C 15.058594 -18.074219 15.066406 -18.085938 15.078125 -18.101562 C 15.425781 -18.570312 15.636719 -19.105469 15.714844 -19.714844 C 15.785156 -20.269531 15.730469 -20.785156 15.550781 -21.265625 L 15.601562 -21.128906 L 15.644531 -20.992188 C 15.5 -21.453125 15.277344 -21.859375 14.976562 -22.214844 C 14.785156 -22.4375 14.582031 -22.617188 14.375 -22.746094 C 14.636719 -22.582031 14.921875 -22.433594 15.230469 -22.300781 C 16.039062 -21.957031 16.746094 -21.585938 17.351562 -21.199219 L 17.40625 -21.164062 Z M 11.695312 -12.636719 L 14.578125 -16.882812 L 11.804688 -12.566406 C 11.679688 -12.648438 11.472656 -12.75 11.1875 -12.871094 C 10.402344 -13.207031 9.660156 -13.59375 8.957031 -14.03125 C 7.394531 -15.003906 6.359375 -16.300781 5.851562 -17.933594 L 10.746094 -19.464844 L 5.945312 -17.660156 C 5.53125 -18.765625 5.394531 -19.878906 5.535156 -21 C 5.683594 -22.175781 6.121094 -23.25 6.847656 -24.222656 C 7.609375 -25.253906 8.5625 -26.121094 9.699219 -26.828125 C 10.453125 -27.296875 11.15625 -27.6875 11.800781 -27.988281 C 11.625 -27.90625 11.4375 -27.773438 11.246094 -27.59375 C 10.921875 -27.28125 10.671875 -26.90625 10.503906 -26.46875 C 10.300781 -25.949219 10.269531 -25.429688 10.410156 -24.914062 C 10.492188 -24.609375 10.640625 -24.351562 10.851562 -24.140625 C 11.078125 -23.914062 11.34375 -23.761719 11.640625 -23.683594 C 12.003906 -23.589844 12.359375 -23.566406 12.710938 -23.617188 C 12.914062 -23.644531 13.050781 -23.675781 13.125 -23.714844 C 12.4375 -23.398438 11.816406 -22.941406 11.261719 -22.34375 C 10.722656 -21.761719 10.332031 -21.128906 10.085938 -20.445312 C 9.933594 -20.019531 9.898438 -19.613281 9.980469 -19.226562 C 9.996094 -19.160156 10.035156 -19.078125 10.097656 -18.976562 C 10.234375 -18.761719 10.449219 -18.527344 10.738281 -18.273438 L 7.347656 -14.421875 L 10.632812 -18.363281 C 10.816406 -18.207031 11.058594 -18.050781 11.359375 -17.898438 C 12.046875 -17.539062 12.726562 -17.164062 13.402344 -16.777344 C 14.449219 -16.175781 15.367188 -15.457031 16.15625 -14.621094 C 17.390625 -13.316406 18.109375 -11.722656 18.3125 -9.847656 L 13.210938 -9.300781 L 18.296875 -9.964844 C 18.519531 -8.273438 18.230469 -6.6875 17.433594 -5.207031 C 16.628906 -3.714844 15.449219 -2.597656 13.890625 -1.855469 L 13.832031 -1.828125 L 13.769531 -1.800781 C 13.125 -1.511719 12.296875 -1.289062 11.28125 -1.128906 C 10.324219 -0.976562 9.367188 -0.933594 8.40625 -1 C 7.554688 -1.054688 6.773438 -1.234375 6.058594 -1.53125 C 4.976562 -1.984375 4.109375 -2.65625 3.457031 -3.554688 C 3.554688 -3.421875 3.691406 -3.292969 3.867188 -3.167969 C 4.125 -2.980469 4.414062 -2.847656 4.730469 -2.769531 C 5.007812 -2.695312 5.292969 -2.703125 5.578125 -2.78125 C 5.863281 -2.863281 6.125 -3.027344 6.363281 -3.269531 C 6.734375 -3.65625 6.957031 -4.121094 7.035156 -4.664062 C 7.109375 -5.183594 7.0625 -5.683594 6.902344 -6.15625 C 6.8125 -6.421875 6.707031 -6.636719 6.582031 -6.796875 L 6.617188 -6.746094 L 6.65625 -6.699219 C 7 -6.234375 7.402344 -5.90625 7.855469 -5.722656 C 8.484375 -5.460938 9.144531 -5.347656 9.832031 -5.378906 C 10.574219 -5.414062 11.273438 -5.589844 11.929688 -5.90625 C 12.515625 -6.191406 13.007812 -6.585938 13.40625 -7.089844 C 13.691406 -7.449219 13.863281 -7.902344 13.929688 -8.453125 C 14.007812 -9.214844 13.867188 -9.929688 13.507812 -10.601562 C 13.058594 -11.445312 12.457031 -12.125 11.695312 -12.636719 Z M 11.695312 -12.636719 "/></g></g></g><g fill="#2f647e" fill-opacity="1"><g transform="translate(224.822148, 155.999987)"><g><path d="M 18.546875 -31.929688 C 20.40625 -31.664062 21.957031 -30.90625 23.207031 -29.65625 C 24.308594 -28.558594 25.050781 -27.257812 25.441406 -25.761719 C 25.828125 -24.277344 25.824219 -22.8125 25.429688 -21.355469 C 24.957031 -19.632812 24.023438 -18.257812 22.621094 -17.226562 C 21.800781 -16.625 20.886719 -16.214844 19.867188 -16.003906 C 19.042969 -15.828125 18.179688 -15.789062 17.273438 -15.886719 L 17.214844 -15.894531 L 17.15625 -15.898438 C 16.078125 -16.042969 14.945312 -16.148438 13.761719 -16.21875 L 14.070312 -21.339844 L 19.191406 -21.023438 L 18.664062 -12.503906 L 18.136719 -3.945312 L 13.015625 -4.261719 L 18.140625 -4.078125 C 18.109375 -3.140625 17.929688 -2.257812 17.613281 -1.425781 C 17.257812 -0.5 16.738281 0.320312 16.0625 1.039062 C 14.964844 2.203125 13.652344 2.988281 12.128906 3.394531 C 10.652344 3.789062 9.179688 3.785156 7.71875 3.386719 C 6.09375 2.945312 4.757812 2.082031 3.699219 0.800781 C 3.0625 0.0234375 2.601562 -0.859375 2.324219 -1.847656 C 2.09375 -2.664062 1.992188 -3.523438 2.023438 -4.4375 L 2.027344 -4.507812 L 2.558594 -13.152344 L 3.085938 -21.730469 L 8.207031 -21.417969 L 8.433594 -16.292969 C 7.34375 -16.242188 6.28125 -16.171875 5.242188 -16.074219 C 4.34375 -15.980469 3.46875 -16.03125 2.617188 -16.222656 C 1.578125 -16.457031 0.644531 -16.894531 -0.183594 -17.53125 C -1.578125 -18.609375 -2.492188 -20.011719 -2.925781 -21.734375 C -3.28125 -23.167969 -3.269531 -24.601562 -2.886719 -26.042969 C -2.492188 -27.515625 -1.75 -28.796875 -0.65625 -29.890625 C 0.644531 -31.191406 2.277344 -31.945312 4.238281 -32.148438 C 8.992188 -32.632812 13.746094 -32.5625 18.492188 -31.9375 Z M 17.152344 -21.761719 C 13.195312 -22.285156 9.246094 -22.34375 5.296875 -21.941406 C 5.445312 -21.957031 5.613281 -22.003906 5.796875 -22.085938 C 6.09375 -22.214844 6.359375 -22.398438 6.597656 -22.636719 C 6.804688 -22.84375 6.949219 -23.097656 7.027344 -23.398438 C 7.101562 -23.664062 7.101562 -23.941406 7.027344 -24.226562 C 6.882812 -24.804688 6.570312 -25.28125 6.085938 -25.65625 C 5.714844 -25.941406 5.3125 -26.132812 4.878906 -26.230469 C 4.632812 -26.285156 4.4375 -26.304688 4.292969 -26.289062 C 5.496094 -26.402344 6.722656 -26.488281 7.980469 -26.542969 L 13.679688 -26.796875 L 12.800781 -12.523438 L 12.273438 -3.945312 L 7.152344 -4.261719 L 12.277344 -4.082031 C 12.285156 -4.238281 12.257812 -4.425781 12.195312 -4.640625 C 12.085938 -5.03125 11.894531 -5.390625 11.621094 -5.722656 C 11.292969 -6.121094 10.894531 -6.382812 10.417969 -6.511719 C 10.101562 -6.597656 9.789062 -6.601562 9.484375 -6.519531 C 9.128906 -6.425781 8.835938 -6.253906 8.597656 -6 C 8.351562 -5.738281 8.164062 -5.441406 8.035156 -5.109375 C 7.945312 -4.871094 7.894531 -4.648438 7.886719 -4.441406 L 7.890625 -4.507812 L 8.421875 -13.136719 L 9.265625 -26.765625 L 14.378906 -26.460938 C 15.800781 -26.375 17.167969 -26.246094 18.484375 -26.074219 L 17.820312 -20.988281 L 18.367188 -26.089844 C 18.191406 -26.105469 17.988281 -26.089844 17.75 -26.042969 C 17.316406 -25.949219 16.914062 -25.765625 16.542969 -25.492188 C 16.023438 -25.113281 15.6875 -24.632812 15.53125 -24.058594 C 15.445312 -23.75 15.441406 -23.453125 15.515625 -23.171875 C 15.59375 -22.871094 15.738281 -22.613281 15.953125 -22.402344 C 16.15625 -22.195312 16.386719 -22.035156 16.640625 -21.917969 C 16.804688 -21.839844 16.957031 -21.789062 17.097656 -21.769531 Z M 17.152344 -21.761719 "/></g></g></g><g fill="#2f647e" fill-opacity="1"><g transform="translate(247.372523, 155.999987)"><g><path d="M 16.472656 -13.375 C 18.488281 -13.304688 20.191406 -12.636719 21.578125 -11.367188 C 22.800781 -10.25 23.605469 -8.890625 23.996094 -7.296875 C 24.339844 -5.886719 24.339844 -4.488281 23.992188 -3.09375 C 23.574219 -1.433594 22.707031 -0.0546875 21.386719 1.039062 C 20.613281 1.679688 19.734375 2.144531 18.75 2.429688 C 17.921875 2.671875 17.042969 2.773438 16.121094 2.742188 C 14.480469 2.671875 12.855469 2.675781 11.246094 2.757812 C 9.660156 2.839844 8.074219 3.007812 6.484375 3.265625 C 5.089844 3.464844 3.710938 3.347656 2.355469 2.902344 C 0.898438 2.429688 -0.335938 1.636719 -1.347656 0.523438 C -2.117188 -0.320312 -2.648438 -1.292969 -2.9375 -2.394531 C -3.1875 -3.359375 -3.234375 -4.359375 -3.082031 -5.402344 L 1.992188 -4.652344 L -3.097656 -5.277344 C -2.648438 -8.914062 -2.15625 -12.554688 -1.617188 -16.191406 C -1.074219 -19.828125 -0.488281 -23.464844 0.144531 -27.101562 C 0.367188 -28.359375 0.839844 -29.46875 1.5625 -30.4375 L 5.667969 -27.359375 L 1.210938 -29.902344 C 1.84375 -31.003906 2.710938 -31.90625 3.820312 -32.609375 C 4.980469 -33.34375 6.296875 -33.742188 7.777344 -33.8125 C 10.8125 -33.894531 13.8125 -33.84375 16.785156 -33.648438 C 18.777344 -33.511719 20.445312 -32.808594 21.789062 -31.539062 C 22.980469 -30.417969 23.769531 -29.070312 24.152344 -27.5 C 24.496094 -26.09375 24.496094 -24.691406 24.148438 -23.300781 C 23.722656 -21.605469 22.832031 -20.21875 21.476562 -19.128906 C 20.675781 -18.492188 19.769531 -18.039062 18.757812 -17.777344 C 17.917969 -17.5625 17.03125 -17.484375 16.101562 -17.550781 C 14.292969 -17.671875 12.441406 -17.734375 10.550781 -17.734375 L 10.550781 -22.863281 L 15.609375 -21.992188 L 15.21875 -19.726562 C 15.097656 -19.027344 14.988281 -18.328125 14.890625 -17.628906 L 9.808594 -18.328125 L 9.933594 -23.457031 C 11.140625 -23.429688 12.308594 -23.355469 13.433594 -23.234375 C 15.277344 -23.050781 16.902344 -22.351562 18.308594 -21.132812 C 19.195312 -20.363281 19.867188 -19.445312 20.324219 -18.382812 C 20.746094 -17.394531 20.957031 -16.335938 20.957031 -15.203125 C 20.957031 -13.785156 20.589844 -12.441406 19.847656 -11.171875 C 19.164062 -10 18.257812 -9.046875 17.128906 -8.316406 C 15.679688 -7.378906 14.101562 -6.996094 12.386719 -7.167969 C 11.230469 -7.28125 10.074219 -7.335938 8.910156 -7.335938 L 8.910156 -12.46875 L 13.992188 -11.753906 L 13.367188 -7.300781 L 8.285156 -8.011719 L 7.785156 -13.117188 C 9.230469 -13.257812 10.675781 -13.351562 12.121094 -13.394531 C 13.566406 -13.4375 15.023438 -13.429688 16.496094 -13.371094 Z M 16.101562 -3.121094 C 14.863281 -3.167969 13.636719 -3.171875 12.421875 -3.136719 C 11.210938 -3.101562 10 -3.023438 8.785156 -2.90625 L 2.300781 -2.269531 L 3.519531 -10.953125 L 4.449219 -17.597656 L 8.910156 -17.597656 C 10.40625 -17.597656 11.90625 -17.523438 13.40625 -17.375 C 12.738281 -17.445312 12.121094 -17.296875 11.554688 -16.929688 C 11.3125 -16.773438 11.125 -16.578125 10.988281 -16.34375 C 10.792969 -16.011719 10.699219 -15.632812 10.699219 -15.203125 C 10.699219 -14.929688 10.761719 -14.644531 10.894531 -14.339844 C 11.054688 -13.960938 11.289062 -13.640625 11.589844 -13.378906 C 11.824219 -13.175781 12.078125 -13.058594 12.359375 -13.03125 C 11.507812 -13.121094 10.613281 -13.179688 9.683594 -13.199219 L 3.941406 -13.339844 L 4.726562 -19.03125 C 4.839844 -19.84375 4.964844 -20.65625 5.105469 -21.46875 L 6.230469 -27.992188 L 10.550781 -27.992188 C 12.675781 -27.992188 14.757812 -27.925781 16.808594 -27.785156 C 16.632812 -27.796875 16.425781 -27.773438 16.191406 -27.714844 C 15.785156 -27.609375 15.410156 -27.417969 15.066406 -27.144531 C 14.621094 -26.785156 14.328125 -26.335938 14.191406 -25.789062 C 14.132812 -25.539062 14.128906 -25.300781 14.1875 -25.066406 C 14.285156 -24.667969 14.472656 -24.339844 14.75 -24.074219 C 15 -23.839844 15.273438 -23.664062 15.578125 -23.542969 C 15.773438 -23.464844 15.953125 -23.421875 16.121094 -23.410156 C 13.464844 -23.582031 10.839844 -23.632812 8.246094 -23.5625 C 8.578125 -23.578125 8.933594 -23.703125 9.3125 -23.941406 C 9.636719 -24.148438 9.90625 -24.4375 10.121094 -24.8125 L 9.960938 -24.535156 L 9.769531 -24.28125 C 10.027344 -24.621094 10.1875 -24.976562 10.253906 -25.34375 C 9.632812 -21.792969 9.0625 -18.238281 8.535156 -14.683594 C 8.003906 -11.128906 7.523438 -7.578125 7.085938 -4.023438 L 7.078125 -3.960938 L 7.066406 -3.898438 C 7.117188 -4.238281 7.09375 -4.601562 6.992188 -4.992188 C 6.851562 -5.519531 6.601562 -5.984375 6.234375 -6.386719 C 6.027344 -6.613281 5.796875 -6.765625 5.539062 -6.851562 C 5.378906 -6.902344 5.152344 -6.90625 4.847656 -6.863281 C 6.804688 -7.179688 8.761719 -7.386719 10.71875 -7.488281 C 12.652344 -7.585938 14.570312 -7.59375 16.472656 -7.511719 C 16.304688 -7.515625 16.109375 -7.488281 15.886719 -7.421875 C 15.507812 -7.3125 15.160156 -7.125 14.839844 -6.863281 C 14.433594 -6.523438 14.164062 -6.097656 14.035156 -5.582031 C 13.976562 -5.335938 13.972656 -5.09375 14.03125 -4.859375 C 14.132812 -4.433594 14.339844 -4.082031 14.652344 -3.796875 C 14.925781 -3.546875 15.226562 -3.363281 15.558594 -3.242188 C 15.765625 -3.167969 15.953125 -3.125 16.121094 -3.121094 Z M 16.101562 -3.121094 "/></g></g></g><g fill="#2f647e" fill-opacity="1"><g transform="translate(268.594102, 155.999987)"><g><path d="M 12.117188 -24.410156 C 12.25 -25.339844 12.515625 -26.195312 12.914062 -26.96875 C 13.402344 -27.925781 14.066406 -28.722656 14.902344 -29.363281 C 16.261719 -30.402344 17.816406 -30.925781 19.5625 -30.925781 C 21.054688 -30.925781 22.46875 -30.542969 23.804688 -29.78125 C 25.164062 -29.003906 26.230469 -27.9375 27.003906 -26.582031 C 27.898438 -25.015625 28.210938 -23.285156 27.941406 -21.394531 C 26.851562 -14.0625 25.5 -6.789062 23.882812 0.417969 C 23.484375 2.167969 22.59375 3.597656 21.203125 4.710938 C 20.03125 5.648438 18.691406 6.230469 17.1875 6.460938 C 15.644531 6.695312 14.164062 6.519531 12.75 5.929688 C 11.855469 5.558594 11.066406 5.035156 10.386719 4.355469 C 9.75 3.71875 9.238281 2.972656 8.851562 2.121094 L 8.789062 1.980469 C 8.203125 0.574219 7.601562 -0.820312 6.992188 -2.210938 L 5.117188 -6.445312 L 9.808594 -8.519531 L 14.808594 -7.367188 C 14.425781 -5.699219 14.050781 -4.027344 13.691406 -2.347656 C 13.339844 -0.6875 13.007812 0.964844 12.703125 2.613281 C 12.550781 3.511719 12.261719 4.347656 11.835938 5.121094 C 11.316406 6.074219 10.625 6.859375 9.765625 7.480469 C 8.367188 8.492188 6.796875 8.976562 5.066406 8.9375 C 3.625 8.90625 2.265625 8.53125 0.988281 7.816406 C -0.402344 7.035156 -1.480469 5.941406 -2.253906 4.535156 C -3.15625 2.882812 -3.402344 1.066406 -2.992188 -0.921875 C -1.832031 -7.195312 -0.402344 -13.449219 1.304688 -19.683594 C 1.777344 -21.339844 2.691406 -22.695312 4.042969 -23.746094 C 5.179688 -24.632812 6.457031 -25.199219 7.875 -25.453125 C 9.425781 -25.726562 10.914062 -25.578125 12.339844 -25.007812 C 13.28125 -24.632812 14.101562 -24.082031 14.804688 -23.351562 C 15.433594 -22.707031 15.933594 -21.945312 16.3125 -21.078125 L 19.753906 -13.140625 L 15.046875 -11.097656 L 10.015625 -12.105469 C 10.421875 -14.136719 10.796875 -16.175781 11.140625 -18.21875 C 11.488281 -20.285156 11.8125 -22.359375 12.121094 -24.4375 Z M 22.269531 -22.933594 C 21.953125 -20.789062 21.617188 -18.652344 21.257812 -16.523438 C 20.898438 -14.375 20.503906 -12.230469 20.078125 -10.09375 L 16.863281 5.984375 L 6.902344 -16.988281 C 7.019531 -16.71875 7.195312 -16.460938 7.433594 -16.21875 C 7.746094 -15.894531 8.109375 -15.648438 8.53125 -15.480469 C 8.914062 -15.328125 9.296875 -15.285156 9.671875 -15.351562 C 9.917969 -15.394531 10.140625 -15.492188 10.339844 -15.648438 C 10.753906 -15.96875 11.039062 -16.410156 11.203125 -16.976562 C 9.570312 -11.019531 8.191406 -4.972656 7.054688 1.15625 C 7.085938 1.003906 7.089844 0.824219 7.066406 0.613281 C 7.03125 0.261719 6.921875 -0.0703125 6.746094 -0.394531 C 6.574219 -0.707031 6.328125 -0.953125 6.007812 -1.132812 C 5.796875 -1.25 5.558594 -1.3125 5.292969 -1.316406 C 4.730469 -1.332031 4.21875 -1.171875 3.757812 -0.835938 C 3.367188 -0.554688 3.058594 -0.210938 2.839844 0.195312 C 2.714844 0.417969 2.640625 0.605469 2.617188 0.75 C 2.9375 -0.992188 3.285156 -2.738281 3.660156 -4.492188 C 4.03125 -6.226562 4.414062 -7.953125 4.8125 -9.671875 L 8.273438 -24.675781 L 16.378906 -6.347656 C 17.019531 -4.898438 17.644531 -3.441406 18.253906 -1.980469 L 13.523438 0 L 18.191406 -2.121094 C 18.066406 -2.402344 17.882812 -2.660156 17.644531 -2.898438 C 17.363281 -3.179688 17.039062 -3.398438 16.679688 -3.546875 C 16.332031 -3.691406 15.988281 -3.738281 15.644531 -3.683594 C 15.335938 -3.636719 15.050781 -3.511719 14.792969 -3.300781 C 14.316406 -2.921875 14.007812 -2.429688 13.871094 -1.824219 C 15.433594 -8.789062 16.738281 -15.796875 17.785156 -22.847656 C 17.761719 -22.691406 17.769531 -22.515625 17.800781 -22.320312 C 17.847656 -22.03125 17.945312 -21.753906 18.097656 -21.492188 C 18.246094 -21.226562 18.453125 -21.019531 18.714844 -20.871094 C 18.957031 -20.734375 19.238281 -20.664062 19.5625 -20.664062 C 20.132812 -20.664062 20.65625 -20.847656 21.132812 -21.210938 C 21.527344 -21.511719 21.832031 -21.871094 22.046875 -22.292969 C 22.167969 -22.535156 22.246094 -22.757812 22.273438 -22.957031 Z M 22.269531 -22.933594 "/></g></g></g><g fill="#2f647e" fill-opacity="1"><g transform="translate(293.450324, 155.999987)"><g><path d="M -1.386719 -24.621094 C -1.179688 -26.550781 -0.429688 -28.164062 0.867188 -29.460938 C 1.964844 -30.5625 3.265625 -31.304688 4.761719 -31.695312 C 6.207031 -32.074219 7.640625 -32.085938 9.0625 -31.730469 C 10.820312 -31.289062 12.234375 -30.351562 13.300781 -28.914062 C 13.910156 -28.09375 14.324219 -27.179688 14.546875 -26.167969 C 14.730469 -25.328125 14.773438 -24.445312 14.675781 -23.527344 C 13.929688 -16.550781 13.351562 -9.558594 12.9375 -2.550781 C 12.800781 -0.570312 12.121094 1.089844 10.898438 2.425781 C 9.78125 3.648438 8.421875 4.457031 6.828125 4.847656 C 5.417969 5.191406 4.019531 5.1875 2.625 4.839844 C 0.964844 4.425781 -0.414062 3.558594 -1.507812 2.238281 C -2.171875 1.433594 -2.640625 0.523438 -2.917969 -0.5 C -3.148438 -1.355469 -3.230469 -2.257812 -3.164062 -3.207031 C -2.746094 -10.339844 -2.152344 -17.476562 -1.386719 -24.621094 Z M 8.8125 -23.527344 C 8.066406 -16.550781 7.488281 -9.539062 7.070312 -2.5 C 7.085938 -2.691406 7.058594 -2.914062 6.992188 -3.164062 C 6.878906 -3.582031 6.679688 -3.960938 6.394531 -4.308594 C 6.054688 -4.714844 5.628906 -4.984375 5.113281 -5.113281 C 4.867188 -5.175781 4.625 -5.175781 4.390625 -5.121094 C 3.964844 -5.015625 3.613281 -4.808594 3.328125 -4.496094 C 3.101562 -4.25 2.933594 -3.980469 2.816406 -3.683594 C 2.746094 -3.503906 2.707031 -3.328125 2.695312 -3.152344 C 3.117188 -10.324219 3.710938 -17.480469 4.472656 -24.621094 C 4.453125 -24.433594 4.472656 -24.214844 4.527344 -23.964844 C 4.617188 -23.546875 4.796875 -23.15625 5.066406 -22.792969 C 5.257812 -22.535156 5.492188 -22.316406 5.769531 -22.132812 C 6.027344 -21.964844 6.296875 -21.84375 6.570312 -21.773438 C 6.847656 -21.707031 7.105469 -21.703125 7.351562 -21.769531 C 7.652344 -21.847656 7.910156 -21.992188 8.121094 -22.207031 C 8.351562 -22.433594 8.527344 -22.691406 8.65625 -22.976562 C 8.742188 -23.175781 8.796875 -23.359375 8.8125 -23.527344 Z M 8.8125 -23.527344 "/></g></g></g><g fill="#2f647e" fill-opacity="1"><g transform="translate(305.018629, 155.999987)"><g><path d="M 12.117188 -24.410156 C 12.25 -25.339844 12.515625 -26.195312 12.914062 -26.96875 C 13.402344 -27.925781 14.066406 -28.722656 14.902344 -29.363281 C 16.261719 -30.402344 17.816406 -30.925781 19.5625 -30.925781 C 21.054688 -30.925781 22.46875 -30.542969 23.804688 -29.78125 C 25.164062 -29.003906 26.230469 -27.9375 27.003906 -26.582031 C 27.898438 -25.015625 28.210938 -23.285156 27.941406 -21.394531 C 26.851562 -14.0625 25.5 -6.789062 23.882812 0.417969 C 23.484375 2.167969 22.59375 3.597656 21.203125 4.710938 C 20.03125 5.648438 18.691406 6.230469 17.1875 6.460938 C 15.644531 6.695312 14.164062 6.519531 12.75 5.929688 C 11.855469 5.558594 11.066406 5.035156 10.386719 4.355469 C 9.75 3.71875 9.238281 2.972656 8.851562 2.121094 L 8.789062 1.980469 C 8.203125 0.574219 7.601562 -0.820312 6.992188 -2.210938 L 5.117188 -6.445312 L 9.808594 -8.519531 L 14.808594 -7.367188 C 14.425781 -5.699219 14.050781 -4.027344 13.691406 -2.347656 C 13.339844 -0.6875 13.007812 0.964844 12.703125 2.613281 C 12.550781 3.511719 12.261719 4.347656 11.835938 5.121094 C 11.316406 6.074219 10.625 6.859375 9.765625 7.480469 C 8.367188 8.492188 6.796875 8.976562 5.066406 8.9375 C 3.625 8.90625 2.265625 8.53125 0.988281 7.816406 C -0.402344 7.035156 -1.480469 5.941406 -2.253906 4.535156 C -3.15625 2.882812 -3.402344 1.066406 -2.992188 -0.921875 C -1.832031 -7.195312 -0.402344 -13.449219 1.304688 -19.683594 C 1.777344 -21.339844 2.691406 -22.695312 4.042969 -23.746094 C 5.179688 -24.632812 6.457031 -25.199219 7.875 -25.453125 C 9.425781 -25.726562 10.914062 -25.578125 12.339844 -25.007812 C 13.28125 -24.632812 14.101562 -24.082031 14.804688 -23.351562 C 15.433594 -22.707031 15.933594 -21.945312 16.3125 -21.078125 L 19.753906 -13.140625 L 15.046875 -11.097656 L 10.015625 -12.105469 C 10.421875 -14.136719 10.796875 -16.175781 11.140625 -18.21875 C 11.488281 -20.285156 11.8125 -22.359375 12.121094 -24.4375 Z M 22.269531 -22.933594 C 21.953125 -20.789062 21.617188 -18.652344 21.257812 -16.523438 C 20.898438 -14.375 20.503906 -12.230469 20.078125 -10.09375 L 16.863281 5.984375 L 6.902344 -16.988281 C 7.019531 -16.71875 7.195312 -16.460938 7.433594 -16.21875 C 7.746094 -15.894531 8.109375 -15.648438 8.53125 -15.480469 C 8.914062 -15.328125 9.296875 -15.285156 9.671875 -15.351562 C 9.917969 -15.394531 10.140625 -15.492188 10.339844 -15.648438 C 10.753906 -15.96875 11.039062 -16.410156 11.203125 -16.976562 C 9.570312 -11.019531 8.191406 -4.972656 7.054688 1.15625 C 7.085938 1.003906 7.089844 0.824219 7.066406 0.613281 C 7.03125 0.261719 6.921875 -0.0703125 6.746094 -0.394531 C 6.574219 -0.707031 6.328125 -0.953125 6.007812 -1.132812 C 5.796875 -1.25 5.558594 -1.3125 5.292969 -1.316406 C 4.730469 -1.332031 4.21875 -1.171875 3.757812 -0.835938 C 3.367188 -0.554688 3.058594 -0.210938 2.839844 0.195312 C 2.714844 0.417969 2.640625 0.605469 2.617188 0.75 C 2.9375 -0.992188 3.285156 -2.738281 3.660156 -4.492188 C 4.03125 -6.226562 4.414062 -7.953125 4.8125 -9.671875 L 8.273438 -24.675781 L 16.378906 -6.347656 C 17.019531 -4.898438 17.644531 -3.441406 18.253906 -1.980469 L 13.523438 0 L 18.191406 -2.121094 C 18.066406 -2.402344 17.882812 -2.660156 17.644531 -2.898438 C 17.363281 -3.179688 17.039062 -3.398438 16.679688 -3.546875 C 16.332031 -3.691406 15.988281 -3.738281 15.644531 -3.683594 C 15.335938 -3.636719 15.050781 -3.511719 14.792969 -3.300781 C 14.316406 -2.921875 14.007812 -2.429688 13.871094 -1.824219 C 15.433594 -8.789062 16.738281 -15.796875 17.785156 -22.847656 C 17.761719 -22.691406 17.769531 -22.515625 17.800781 -22.320312 C 17.847656 -22.03125 17.945312 -21.753906 18.097656 -21.492188 C 18.246094 -21.226562 18.453125 -21.019531 18.714844 -20.871094 C 18.957031 -20.734375 19.238281 -20.664062 19.5625 -20.664062 C 20.132812 -20.664062 20.65625 -20.847656 21.132812 -21.210938 C 21.527344 -21.511719 21.832031 -21.871094 22.046875 -22.292969 C 22.167969 -22.535156 22.246094 -22.757812 22.273438 -22.957031 Z M 22.269531 -22.933594 "/></g></g></g><g fill="#2f647e" fill-opacity="1"><g transform="translate(329.874851, 155.999987)"><g><path d="M 17.667969 -21.425781 C 20.773438 -21.472656 23.296875 -20.605469 25.234375 -18.828125 C 26.371094 -17.789062 27.183594 -16.507812 27.675781 -14.984375 C 28.082031 -13.734375 28.25 -12.351562 28.183594 -10.835938 C 28.105469 -8.527344 27.515625 -6.320312 26.414062 -4.207031 C 25.28125 -2.042969 23.730469 -0.277344 21.761719 1.089844 C 19.535156 2.65625 17.085938 3.480469 14.40625 3.5625 C 12.203125 3.632812 10.042969 3.355469 7.929688 2.730469 C 5.167969 1.949219 2.898438 0.65625 1.121094 -1.140625 C -0.65625 -2.9375 -1.875 -5.046875 -2.542969 -7.472656 C -3.140625 -9.648438 -3.324219 -11.910156 -3.09375 -14.261719 C -2.875 -16.476562 -2.328125 -18.660156 -1.449219 -20.8125 C -0.585938 -22.929688 0.53125 -24.886719 1.902344 -26.679688 C 3.328125 -28.546875 4.972656 -30.121094 6.84375 -31.410156 C 8.878906 -32.808594 11.09375 -33.71875 13.488281 -34.132812 C 16.03125 -34.574219 18.597656 -34.328125 21.191406 -33.398438 L 19.464844 -28.570312 L 21.03125 -33.453125 C 21.929688 -33.164062 22.734375 -32.757812 23.445312 -32.234375 C 24.273438 -31.625 24.941406 -30.882812 25.453125 -30.007812 C 26.253906 -28.640625 26.636719 -27.167969 26.605469 -25.585938 C 26.574219 -24.117188 26.203125 -22.753906 25.496094 -21.496094 C 24.648438 -19.996094 23.4375 -18.898438 21.859375 -18.203125 C 20.898438 -17.785156 19.886719 -17.585938 18.824219 -17.605469 C 17.9375 -17.625 17.050781 -17.800781 16.15625 -18.128906 L 17.9375 -22.941406 L 16.316406 -18.074219 C 16.226562 -18.105469 16.164062 -18.121094 16.125 -18.117188 C 16.128906 -18.117188 16.128906 -18.121094 16.132812 -18.121094 C 16.128906 -18.117188 16.121094 -18.117188 16.105469 -18.113281 C 15.703125 -17.960938 15.304688 -17.675781 14.902344 -17.246094 C 14.328125 -16.628906 13.855469 -15.925781 13.484375 -15.132812 C 13.128906 -14.367188 12.917969 -13.617188 12.84375 -12.878906 C 12.808594 -12.527344 12.828125 -12.28125 12.898438 -12.132812 C 12.78125 -12.378906 12.640625 -12.550781 12.476562 -12.660156 C 12.582031 -12.589844 12.71875 -12.539062 12.890625 -12.5 C 13.066406 -12.464844 13.210938 -12.457031 13.328125 -12.472656 C 12.972656 -12.417969 12.648438 -12.242188 12.355469 -11.953125 L 15.984375 -8.324219 L 12.234375 -11.824219 C 12.203125 -11.792969 12.179688 -11.761719 12.160156 -11.730469 C 12.15625 -11.726562 12.15625 -11.722656 12.15625 -11.722656 C 12.160156 -11.730469 12.164062 -11.738281 12.167969 -11.753906 L 16.882812 -9.730469 L 12.015625 -11.355469 C 11.929688 -11.089844 11.871094 -10.835938 11.84375 -10.589844 C 11.871094 -10.855469 11.914062 -11.125 11.96875 -11.402344 L 17 -10.394531 L 17 -5.265625 L 16.21875 -5.265625 L 16.21875 -10.394531 L 19.949219 -6.875 C 18.714844 -5.566406 17.179688 -4.761719 15.34375 -4.457031 C 13.617188 -4.167969 11.949219 -4.386719 10.339844 -5.113281 C 9.3125 -5.574219 8.433594 -6.234375 7.699219 -7.085938 C 7.046875 -7.847656 6.542969 -8.730469 6.1875 -9.734375 C 5.800781 -10.835938 5.601562 -11.882812 5.589844 -12.878906 C 5.570312 -14.242188 5.875 -15.488281 6.507812 -16.617188 C 7.003906 -17.503906 7.648438 -18.273438 8.4375 -18.921875 C 9.164062 -19.515625 9.988281 -19.988281 10.910156 -20.335938 C 12.128906 -20.792969 13.421875 -21.089844 14.796875 -21.226562 C 15.828125 -21.328125 16.746094 -21.394531 17.554688 -21.425781 Z M 17.933594 -11.171875 C 17.335938 -11.148438 16.625 -11.097656 15.804688 -11.015625 C 15.328125 -10.96875 14.902344 -10.875 14.53125 -10.734375 C 14.660156 -10.785156 14.796875 -10.867188 14.945312 -10.988281 C 15.152344 -11.160156 15.324219 -11.363281 15.457031 -11.601562 C 15.726562 -12.078125 15.855469 -12.554688 15.847656 -13.03125 C 15.847656 -13.125 15.839844 -13.203125 15.828125 -13.261719 C 15.832031 -13.238281 15.839844 -13.207031 15.855469 -13.167969 C 15.785156 -13.363281 15.664062 -13.566406 15.484375 -13.773438 C 15.226562 -14.074219 14.917969 -14.304688 14.558594 -14.464844 C 14.277344 -14.59375 13.976562 -14.628906 13.65625 -14.578125 C 13.226562 -14.503906 12.835938 -14.285156 12.488281 -13.917969 L 14.007812 -15.527344 L 23.257812 -15.527344 L 22.03125 -9.390625 C 22.035156 -9.40625 22.039062 -9.429688 22.042969 -9.457031 C 21.988281 -8.980469 21.890625 -8.53125 21.75 -8.109375 L 21.683594 -7.90625 L 21.597656 -7.710938 C 21.128906 -6.613281 20.507812 -5.652344 19.734375 -4.824219 L 19.675781 -4.757812 L 19.613281 -4.695312 C 18.332031 -3.414062 16.769531 -2.628906 14.929688 -2.339844 C 13.558594 -2.121094 12.167969 -2.164062 10.753906 -2.46875 C 9.335938 -2.769531 8.039062 -3.304688 6.867188 -4.066406 C 5.425781 -5.007812 4.363281 -6.199219 3.671875 -7.640625 C 2.753906 -9.527344 2.40625 -11.613281 2.632812 -13.890625 C 2.820312 -15.785156 3.335938 -17.640625 4.179688 -19.457031 C 5.011719 -21.242188 6.085938 -22.84375 7.414062 -24.257812 C 8.914062 -25.863281 10.625 -27.023438 12.539062 -27.730469 C 14.828125 -28.582031 17.167969 -28.605469 19.5625 -27.808594 L 19.71875 -27.753906 C 19.53125 -27.820312 19.304688 -27.859375 19.039062 -27.867188 C 18.59375 -27.875 18.15625 -27.785156 17.734375 -27.601562 C 17.222656 -27.375 16.832031 -27.023438 16.558594 -26.535156 C 16.421875 -26.296875 16.351562 -26.050781 16.347656 -25.804688 C 16.339844 -25.453125 16.421875 -25.125 16.597656 -24.824219 C 16.796875 -24.484375 17.050781 -24.203125 17.355469 -23.976562 C 17.546875 -23.835938 17.726562 -23.738281 17.894531 -23.683594 L 17.8125 -23.710938 L 17.734375 -23.738281 C 16.835938 -24.0625 16.003906 -24.15625 15.238281 -24.023438 C 14.320312 -23.863281 13.460938 -23.507812 12.660156 -22.957031 C 11.6875 -22.289062 10.820312 -21.453125 10.058594 -20.453125 C 9.238281 -19.382812 8.570312 -18.210938 8.054688 -16.941406 C 7.550781 -15.707031 7.238281 -14.480469 7.117188 -13.253906 C 7.011719 -12.164062 7.089844 -11.144531 7.351562 -10.191406 C 7.542969 -9.492188 7.898438 -8.878906 8.417969 -8.355469 C 8.929688 -7.835938 9.734375 -7.421875 10.832031 -7.109375 C 11.894531 -6.796875 12.976562 -6.65625 14.085938 -6.691406 C 14.714844 -6.710938 15.324219 -6.925781 15.914062 -7.339844 C 16.5 -7.746094 16.96875 -8.289062 17.320312 -8.960938 C 17.703125 -9.691406 17.90625 -10.464844 17.933594 -11.28125 C 17.941406 -11.464844 17.9375 -11.621094 17.925781 -11.746094 C 17.921875 -11.78125 17.914062 -11.8125 17.910156 -11.832031 L 17.914062 -11.824219 C 17.976562 -11.632812 18.105469 -11.445312 18.300781 -11.265625 C 18.398438 -11.175781 18.476562 -11.125 18.535156 -11.105469 C 18.386719 -11.152344 18.148438 -11.171875 17.820312 -11.167969 Z M 17.933594 -11.171875 "/></g></g></g><g fill="#d4d4d4" fill-opacity="1"><g transform="translate(77.091799, 155.999987)"><g><path d="M 17.1875 -23.71875 C 17.289062 -24.476562 17.5625 -25.023438 18 -25.359375 C 18.445312 -25.703125 18.960938 -25.863281 19.546875 -25.84375 C 20.140625 -25.832031 20.707031 -25.675781 21.25 -25.375 C 21.800781 -25.082031 22.234375 -24.65625 22.546875 -24.09375 C 22.859375 -23.53125 22.960938 -22.882812 22.859375 -22.15625 C 21.796875 -14.96875 20.46875 -7.832031 18.875 -0.75 C 18.738281 -0.164062 18.441406 0.304688 17.984375 0.671875 C 17.535156 1.035156 17.007812 1.257812 16.40625 1.34375 C 15.8125 1.4375 15.242188 1.375 14.703125 1.15625 C 14.171875 0.9375 13.773438 0.535156 13.515625 -0.046875 C 12.921875 -1.472656 12.3125 -2.894531 11.6875 -4.3125 C 11.0625 -5.738281 10.4375 -7.164062 9.8125 -8.59375 C 9.414062 -6.90625 9.035156 -5.207031 8.671875 -3.5 C 8.304688 -1.789062 7.96875 -0.078125 7.65625 1.640625 C 7.53125 2.367188 7.234375 2.898438 6.765625 3.234375 C 6.296875 3.578125 5.765625 3.75 5.171875 3.75 C 4.585938 3.75 4.03125 3.59375 3.5 3.28125 C 2.96875 2.96875 2.550781 2.535156 2.25 1.984375 C 1.945312 1.441406 1.875 0.804688 2.03125 0.078125 C 3.175781 -6.117188 4.582031 -12.265625 6.25 -18.359375 C 6.40625 -18.929688 6.71875 -19.398438 7.1875 -19.765625 C 7.65625 -20.140625 8.179688 -20.378906 8.765625 -20.484375 C 9.359375 -20.585938 9.914062 -20.523438 10.4375 -20.296875 C 10.957031 -20.078125 11.347656 -19.664062 11.609375 -19.0625 L 15.046875 -11.140625 C 15.460938 -13.222656 15.84375 -15.3125 16.1875 -17.40625 C 16.539062 -19.507812 16.875 -21.613281 17.1875 -23.71875 Z M 17.1875 -23.71875 "/></g></g></g><g fill="#d4d4d4" fill-opacity="1"><g transform="translate(101.948021, 155.999987)"><g><path d="M 21.734375 -23.875 C 22.359375 -22.863281 22.785156 -21.722656 23.015625 -20.453125 C 23.253906 -19.191406 23.359375 -17.914062 23.328125 -16.625 C 23.304688 -15.332031 23.203125 -14.128906 23.015625 -13.015625 C 22.753906 -11.296875 22.21875 -9.664062 21.40625 -8.125 C 20.601562 -6.59375 19.523438 -5.265625 18.171875 -4.140625 C 16.867188 -3.078125 15.359375 -2.296875 13.640625 -1.796875 C 11.921875 -1.304688 10.238281 -1.320312 8.59375 -1.84375 C 7.5 -2.175781 6.546875 -2.734375 5.734375 -3.515625 C 4.929688 -4.296875 4.253906 -5.1875 3.703125 -6.1875 C 3.160156 -7.195312 2.757812 -8.222656 2.5 -9.265625 C 2.1875 -10.410156 2.003906 -11.726562 1.953125 -13.21875 C 1.898438 -14.71875 2.003906 -16.25 2.265625 -17.8125 C 2.523438 -19.382812 2.953125 -20.847656 3.546875 -22.203125 C 4.148438 -23.554688 4.960938 -24.675781 5.984375 -25.5625 C 7.023438 -26.625 8.273438 -27.375 9.734375 -27.8125 C 11.191406 -28.257812 12.6875 -28.410156 14.21875 -28.265625 C 15.757812 -28.128906 17.191406 -27.6875 18.515625 -26.9375 C 19.847656 -26.195312 20.921875 -25.175781 21.734375 -23.875 Z M 14.609375 -8.671875 C 15.492188 -9.503906 16.148438 -10.472656 16.578125 -11.578125 C 17.015625 -12.691406 17.285156 -13.851562 17.390625 -15.0625 C 17.492188 -16.269531 17.46875 -17.445312 17.3125 -18.59375 C 17.15625 -19.75 16.703125 -20.691406 15.953125 -21.421875 C 15.210938 -22.148438 14.234375 -22.5 13.015625 -22.46875 C 12.335938 -22.46875 11.675781 -22.296875 11.03125 -21.953125 C 10.394531 -21.617188 9.867188 -21.179688 9.453125 -20.640625 C 8.984375 -19.984375 8.644531 -19.195312 8.4375 -18.28125 C 8.226562 -17.375 8.070312 -16.53125 7.96875 -15.75 C 7.738281 -14 7.832031 -12.28125 8.25 -10.59375 C 8.375 -10.09375 8.546875 -9.59375 8.765625 -9.09375 C 8.992188 -8.601562 9.316406 -8.203125 9.734375 -7.890625 C 10.410156 -7.398438 11.179688 -7.222656 12.046875 -7.359375 C 12.921875 -7.503906 13.6875 -7.851562 14.34375 -8.40625 C 14.414062 -8.476562 14.503906 -8.566406 14.609375 -8.671875 Z M 14.609375 -8.671875 "/></g></g></g><g fill="#d4d4d4" fill-opacity="1"><g transform="translate(127.23414, 155.999987)"><g><path d="M 28.875 -21.421875 C 29.34375 -17.453125 29.1875 -13.503906 28.40625 -9.578125 C 28.175781 -8.503906 27.90625 -7.40625 27.59375 -6.28125 C 27.28125 -5.164062 26.863281 -4.085938 26.34375 -3.046875 C 25.820312 -2.003906 25.15625 -1.09375 24.34375 -0.3125 C 23.539062 0.46875 22.625 1.039062 21.59375 1.40625 C 20.5625 1.769531 19.507812 1.894531 18.4375 1.78125 C 17.375 1.664062 16.375 1.28125 15.4375 0.625 C 14.914062 0.257812 14.457031 -0.171875 14.0625 -0.671875 C 13.175781 0.015625 12.207031 0.472656 11.15625 0.703125 C 10.101562 0.941406 9.046875 0.875 7.984375 0.5 C 6.929688 0.132812 5.953125 -0.59375 5.046875 -1.6875 C 4.316406 -2.59375 3.753906 -3.613281 3.359375 -4.75 C 2.972656 -5.882812 2.691406 -7.050781 2.515625 -8.25 C 2.347656 -9.445312 2.210938 -10.601562 2.109375 -11.71875 C 1.929688 -13.675781 1.90625 -15.628906 2.03125 -17.578125 C 2.164062 -19.535156 2.414062 -21.476562 2.78125 -23.40625 C 2.90625 -24.164062 3.195312 -24.710938 3.65625 -25.046875 C 4.113281 -25.390625 4.640625 -25.550781 5.234375 -25.53125 C 5.835938 -25.519531 6.398438 -25.363281 6.921875 -25.0625 C 7.441406 -24.769531 7.847656 -24.347656 8.140625 -23.796875 C 8.441406 -23.253906 8.53125 -22.601562 8.40625 -21.84375 C 8.039062 -19.863281 7.835938 -17.859375 7.796875 -15.828125 C 7.753906 -13.796875 7.90625 -11.773438 8.25 -9.765625 C 8.300781 -9.429688 8.378906 -8.914062 8.484375 -8.21875 C 8.585938 -7.53125 8.75 -6.875 8.96875 -6.25 C 9.1875 -5.625 9.503906 -5.25 9.921875 -5.125 C 10.316406 -4.988281 10.632812 -5.03125 10.875 -5.25 C 11.125 -5.476562 11.3125 -5.785156 11.4375 -6.171875 C 11.570312 -6.566406 11.664062 -6.960938 11.71875 -7.359375 C 11.769531 -7.765625 11.785156 -8.085938 11.765625 -8.328125 C 11.710938 -9.109375 11.875 -9.71875 12.25 -10.15625 C 12.625 -10.601562 13.09375 -10.894531 13.65625 -11.03125 C 14.21875 -11.175781 14.789062 -11.175781 15.375 -11.03125 C 15.957031 -10.894531 16.460938 -10.597656 16.890625 -10.140625 C 17.328125 -9.679688 17.570312 -9.078125 17.625 -8.328125 C 17.625 -8.035156 17.640625 -7.632812 17.671875 -7.125 C 17.710938 -6.625 17.789062 -6.117188 17.90625 -5.609375 C 18.03125 -5.097656 18.226562 -4.6875 18.5 -4.375 C 18.769531 -4.0625 19.144531 -3.972656 19.625 -4.109375 C 20.144531 -4.234375 20.566406 -4.578125 20.890625 -5.140625 C 21.210938 -5.703125 21.460938 -6.304688 21.640625 -6.953125 C 21.828125 -7.609375 21.988281 -8.144531 22.125 -8.5625 C 22.71875 -10.664062 23.078125 -12.789062 23.203125 -14.9375 C 23.335938 -17.09375 23.273438 -19.253906 23.015625 -21.421875 C 22.941406 -22.171875 23.070312 -22.765625 23.40625 -23.203125 C 23.75 -23.648438 24.195312 -23.945312 24.75 -24.09375 C 25.3125 -24.238281 25.890625 -24.234375 26.484375 -24.078125 C 27.085938 -23.921875 27.617188 -23.617188 28.078125 -23.171875 C 28.535156 -22.734375 28.800781 -22.148438 28.875 -21.421875 Z M 28.875 -21.421875 "/></g></g></g><g fill="#d4d4d4" fill-opacity="1"><g transform="translate(170.22445, 155.999987)"><g><path d="M 17.234375 -9.734375 C 17.984375 -9.785156 18.582031 -9.632812 19.03125 -9.28125 C 19.476562 -8.925781 19.78125 -8.460938 19.9375 -7.890625 C 20.09375 -7.316406 20.09375 -6.726562 19.9375 -6.125 C 19.78125 -5.53125 19.472656 -5.019531 19.015625 -4.59375 C 18.554688 -4.164062 17.960938 -3.925781 17.234375 -3.875 C 15.253906 -3.738281 13.304688 -3.488281 11.390625 -3.125 C 9.472656 -2.757812 7.566406 -2.304688 5.671875 -1.765625 C 5.117188 -1.609375 4.539062 -1.640625 3.9375 -1.859375 C 3.34375 -2.078125 2.847656 -2.425781 2.453125 -2.90625 C 2.066406 -3.394531 1.898438 -3.960938 1.953125 -4.609375 C 2.265625 -7.660156 2.570312 -10.707031 2.875 -13.75 C 3.175781 -16.800781 3.46875 -19.851562 3.75 -22.90625 C 3.832031 -23.632812 4.09375 -24.222656 4.53125 -24.671875 C 4.976562 -25.128906 5.5 -25.429688 6.09375 -25.578125 C 6.695312 -25.722656 7.273438 -25.722656 7.828125 -25.578125 C 8.390625 -25.429688 8.847656 -25.132812 9.203125 -24.6875 C 9.554688 -24.25 9.691406 -23.65625 9.609375 -22.90625 C 9.378906 -20.476562 9.144531 -18.054688 8.90625 -15.640625 C 8.675781 -13.234375 8.441406 -10.832031 8.203125 -8.4375 C 11.148438 -9.0625 14.160156 -9.492188 17.234375 -9.734375 Z M 17.234375 -9.734375 "/></g></g></g><g fill="#d4d4d4" fill-opacity="1"><g transform="translate(192.227672, 155.999987)"><g><path d="M 3.71875 -24.078125 C 3.789062 -24.804688 4.046875 -25.390625 4.484375 -25.828125 C 4.929688 -26.273438 5.453125 -26.578125 6.046875 -26.734375 C 6.648438 -26.890625 7.238281 -26.894531 7.8125 -26.75 C 8.382812 -26.601562 8.835938 -26.300781 9.171875 -25.84375 C 9.515625 -25.394531 9.648438 -24.804688 9.578125 -24.078125 C 8.816406 -17.015625 8.226562 -9.941406 7.8125 -2.859375 C 7.757812 -2.097656 7.523438 -1.488281 7.109375 -1.03125 C 6.691406 -0.582031 6.191406 -0.285156 5.609375 -0.140625 C 5.023438 0.00390625 4.445312 0.00390625 3.875 -0.140625 C 3.300781 -0.285156 2.820312 -0.582031 2.4375 -1.03125 C 2.0625 -1.488281 1.898438 -2.097656 1.953125 -2.859375 C 2.367188 -9.941406 2.957031 -17.015625 3.71875 -24.078125 Z M 3.71875 -24.078125 "/></g></g></g><g fill="#d4d4d4" fill-opacity="1"><g transform="translate(203.795977, 155.999987)"><g><path d="M 14.578125 -16.875 C 16.035156 -15.882812 17.1875 -14.59375 18.03125 -13 C 18.875 -11.414062 19.207031 -9.726562 19.03125 -7.9375 C 18.84375 -6.375 18.304688 -5.03125 17.421875 -3.90625 C 16.535156 -2.789062 15.445312 -1.921875 14.15625 -1.296875 C 12.875 -0.671875 11.507812 -0.320312 10.0625 -0.25 C 8.613281 -0.1875 7.222656 -0.425781 5.890625 -0.96875 C 4.566406 -1.519531 3.453125 -2.410156 2.546875 -3.640625 C 2.078125 -4.234375 1.878906 -4.8125 1.953125 -5.375 C 2.035156 -5.9375 2.273438 -6.425781 2.671875 -6.84375 C 3.078125 -7.257812 3.578125 -7.550781 4.171875 -7.71875 C 4.773438 -7.882812 5.382812 -7.890625 6 -7.734375 C 6.613281 -7.578125 7.140625 -7.203125 7.578125 -6.609375 C 7.785156 -6.316406 8.175781 -6.148438 8.75 -6.109375 C 9.320312 -6.078125 9.894531 -6.101562 10.46875 -6.1875 C 11.039062 -6.28125 11.445312 -6.378906 11.6875 -6.484375 C 12.226562 -6.742188 12.632812 -7.128906 12.90625 -7.640625 C 13.1875 -8.148438 13.285156 -8.703125 13.203125 -9.296875 C 13.128906 -10.023438 12.867188 -10.625 12.421875 -11.09375 C 11.984375 -11.5625 11.457031 -11.972656 10.84375 -12.328125 C 10.226562 -12.679688 9.609375 -13.019531 8.984375 -13.34375 C 8.359375 -13.664062 7.8125 -14.023438 7.34375 -14.421875 C 6.039062 -15.566406 5.242188 -16.8125 4.953125 -18.15625 C 4.671875 -19.5 4.769531 -20.835938 5.25 -22.171875 C 5.738281 -23.515625 6.488281 -24.734375 7.5 -25.828125 C 8.519531 -26.921875 9.679688 -27.769531 10.984375 -28.375 C 11.679688 -28.707031 12.328125 -28.796875 12.921875 -28.640625 C 13.523438 -28.484375 14.039062 -28.191406 14.46875 -27.765625 C 14.90625 -27.335938 15.203125 -26.835938 15.359375 -26.265625 C 15.515625 -25.691406 15.488281 -25.132812 15.28125 -24.59375 C 15.070312 -24.0625 14.628906 -23.640625 13.953125 -23.328125 C 13.503906 -23.117188 12.988281 -22.832031 12.40625 -22.46875 C 11.820312 -22.101562 11.335938 -21.664062 10.953125 -21.15625 C 10.578125 -20.65625 10.507812 -20.09375 10.75 -19.46875 C 10.875 -19.039062 11.175781 -18.675781 11.65625 -18.375 C 12.144531 -18.082031 12.660156 -17.816406 13.203125 -17.578125 C 13.753906 -17.347656 14.210938 -17.113281 14.578125 -16.875 Z M 14.578125 -16.875 "/></g></g></g><g fill="#d4d4d4" fill-opacity="1"><g transform="translate(224.822148, 155.999987)"><g><path d="M 17.8125 -26.84375 C 18.539062 -26.738281 19.128906 -26.460938 19.578125 -26.015625 C 20.023438 -25.578125 20.328125 -25.054688 20.484375 -24.453125 C 20.640625 -23.859375 20.640625 -23.273438 20.484375 -22.703125 C 20.328125 -22.128906 20.023438 -21.679688 19.578125 -21.359375 C 19.128906 -21.035156 18.539062 -20.910156 17.8125 -20.984375 C 16.613281 -21.140625 15.363281 -21.257812 14.0625 -21.34375 C 13.882812 -18.5 13.707031 -15.65625 13.53125 -12.8125 C 13.363281 -9.976562 13.191406 -7.128906 13.015625 -4.265625 C 12.984375 -3.535156 12.753906 -2.941406 12.328125 -2.484375 C 11.898438 -2.023438 11.390625 -1.71875 10.796875 -1.5625 C 10.210938 -1.40625 9.632812 -1.40625 9.0625 -1.5625 C 8.488281 -1.71875 8.019531 -2.015625 7.65625 -2.453125 C 7.289062 -2.898438 7.125 -3.503906 7.15625 -4.265625 C 7.332031 -7.128906 7.503906 -9.984375 7.671875 -12.828125 C 7.847656 -15.679688 8.023438 -18.546875 8.203125 -21.421875 C 7.035156 -21.367188 5.890625 -21.289062 4.765625 -21.1875 C 4.015625 -21.101562 3.410156 -21.238281 2.953125 -21.59375 C 2.492188 -21.945312 2.191406 -22.410156 2.046875 -22.984375 C 1.910156 -23.554688 1.921875 -24.132812 2.078125 -24.71875 C 2.234375 -25.300781 2.53125 -25.8125 2.96875 -26.25 C 3.414062 -26.695312 4.015625 -26.960938 4.765625 -27.046875 C 9.117188 -27.484375 13.46875 -27.414062 17.8125 -26.84375 Z M 17.8125 -26.84375 "/></g></g></g><g fill="#d4d4d4" fill-opacity="1"><g transform="translate(247.372523, 155.999987)"><g><path d="M 16.296875 -8.25 C 17.046875 -8.21875 17.648438 -7.992188 18.109375 -7.578125 C 18.566406 -7.160156 18.863281 -6.660156 19 -6.078125 C 19.144531 -5.492188 19.144531 -4.914062 19 -4.34375 C 18.863281 -3.769531 18.566406 -3.289062 18.109375 -2.90625 C 17.648438 -2.53125 17.046875 -2.359375 16.296875 -2.390625 C 14.523438 -2.460938 12.753906 -2.453125 10.984375 -2.359375 C 9.210938 -2.273438 7.441406 -2.085938 5.671875 -1.796875 C 5.117188 -1.722656 4.539062 -1.78125 3.9375 -1.96875 C 3.34375 -2.164062 2.84375 -2.484375 2.4375 -2.921875 C 2.039062 -3.367188 1.894531 -3.945312 2 -4.65625 C 2.4375 -8.25 2.921875 -11.84375 3.453125 -15.4375 C 3.992188 -19.03125 4.578125 -22.625 5.203125 -26.21875 C 5.273438 -26.664062 5.429688 -27.046875 5.671875 -27.359375 C 5.878906 -27.722656 6.175781 -28.023438 6.5625 -28.265625 C 6.957031 -28.515625 7.441406 -28.65625 8.015625 -28.6875 C 10.828125 -28.757812 13.640625 -28.707031 16.453125 -28.53125 C 17.203125 -28.476562 17.804688 -28.234375 18.265625 -27.796875 C 18.722656 -27.367188 19.019531 -26.863281 19.15625 -26.28125 C 19.300781 -25.695312 19.300781 -25.117188 19.15625 -24.546875 C 19.019531 -23.972656 18.722656 -23.503906 18.265625 -23.140625 C 17.804688 -22.773438 17.203125 -22.617188 16.453125 -22.671875 C 14.523438 -22.796875 12.554688 -22.859375 10.546875 -22.859375 C 10.421875 -22.109375 10.289062 -21.351562 10.15625 -20.59375 C 10.03125 -19.84375 9.914062 -19.085938 9.8125 -18.328125 C 10.875 -18.296875 11.898438 -18.226562 12.890625 -18.125 C 13.671875 -18.050781 14.351562 -17.757812 14.9375 -17.25 C 15.53125 -16.738281 15.828125 -16.054688 15.828125 -15.203125 C 15.828125 -14.703125 15.6875 -14.21875 15.40625 -13.75 C 15.132812 -13.28125 14.773438 -12.898438 14.328125 -12.609375 C 13.890625 -12.328125 13.410156 -12.210938 12.890625 -12.265625 C 11.566406 -12.398438 10.238281 -12.46875 8.90625 -12.46875 C 8.800781 -11.738281 8.695312 -10.992188 8.59375 -10.234375 C 8.488281 -9.484375 8.382812 -8.742188 8.28125 -8.015625 C 9.613281 -8.140625 10.941406 -8.222656 12.265625 -8.265625 C 13.597656 -8.304688 14.941406 -8.300781 16.296875 -8.25 Z M 16.296875 -8.25 "/></g></g></g><g fill="#d4d4d4" fill-opacity="1"><g transform="translate(268.594102, 155.999987)"><g><path d="M 17.1875 -23.6875 C 17.289062 -24.414062 17.5625 -24.945312 18 -25.28125 C 18.445312 -25.625 18.960938 -25.796875 19.546875 -25.796875 C 20.140625 -25.796875 20.707031 -25.640625 21.25 -25.328125 C 21.800781 -25.015625 22.234375 -24.582031 22.546875 -24.03125 C 22.859375 -23.488281 22.960938 -22.851562 22.859375 -22.125 C 21.796875 -14.925781 20.46875 -7.785156 18.875 -0.703125 C 18.738281 -0.128906 18.441406 0.335938 17.984375 0.703125 C 17.535156 1.066406 17.007812 1.296875 16.40625 1.390625 C 15.8125 1.484375 15.242188 1.414062 14.703125 1.1875 C 14.171875 0.96875 13.773438 0.570312 13.515625 0 C 12.921875 -1.4375 12.3125 -2.863281 11.6875 -4.28125 C 11.0625 -5.695312 10.4375 -7.109375 9.8125 -8.515625 C 9.414062 -6.828125 9.035156 -5.128906 8.671875 -3.421875 C 8.304688 -1.710938 7.96875 -0.0078125 7.65625 1.6875 C 7.53125 2.4375 7.234375 2.976562 6.765625 3.3125 C 6.296875 3.65625 5.765625 3.820312 5.171875 3.8125 C 4.585938 3.800781 4.03125 3.644531 3.5 3.34375 C 2.96875 3.039062 2.550781 2.613281 2.25 2.0625 C 1.945312 1.519531 1.875 0.875 2.03125 0.125 C 3.175781 -6.082031 4.582031 -12.234375 6.25 -18.328125 C 6.40625 -18.867188 6.71875 -19.320312 7.1875 -19.6875 C 7.65625 -20.0625 8.179688 -20.300781 8.765625 -20.40625 C 9.359375 -20.507812 9.914062 -20.457031 10.4375 -20.25 C 10.957031 -20.039062 11.347656 -19.632812 11.609375 -19.03125 L 15.046875 -11.09375 C 15.460938 -13.175781 15.84375 -15.265625 16.1875 -17.359375 C 16.539062 -19.460938 16.875 -21.570312 17.1875 -23.6875 Z M 17.1875 -23.6875 "/></g></g></g><g fill="#d4d4d4" fill-opacity="1"><g transform="translate(293.450324, 155.999987)"><g><path d="M 3.71875 -24.078125 C 3.789062 -24.804688 4.046875 -25.390625 4.484375 -25.828125 C 4.929688 -26.273438 5.453125 -26.578125 6.046875 -26.734375 C 6.648438 -26.890625 7.238281 -26.894531 7.8125 -26.75 C 8.382812 -26.601562 8.835938 -26.300781 9.171875 -25.84375 C 9.515625 -25.394531 9.648438 -24.804688 9.578125 -24.078125 C 8.816406 -17.015625 8.226562 -9.941406 7.8125 -2.859375 C 7.757812 -2.097656 7.523438 -1.488281 7.109375 -1.03125 C 6.691406 -0.582031 6.191406 -0.285156 5.609375 -0.140625 C 5.023438 0.00390625 4.445312 0.00390625 3.875 -0.140625 C 3.300781 -0.285156 2.820312 -0.582031 2.4375 -1.03125 C 2.0625 -1.488281 1.898438 -2.097656 1.953125 -2.859375 C 2.367188 -9.941406 2.957031 -17.015625 3.71875 -24.078125 Z M 3.71875 -24.078125 "/></g></g></g><g fill="#d4d4d4" fill-opacity="1"><g transform="translate(305.018629, 155.999987)"><g><path d="M 17.1875 -23.6875 C 17.289062 -24.414062 17.5625 -24.945312 18 -25.28125 C 18.445312 -25.625 18.960938 -25.796875 19.546875 -25.796875 C 20.140625 -25.796875 20.707031 -25.640625 21.25 -25.328125 C 21.800781 -25.015625 22.234375 -24.582031 22.546875 -24.03125 C 22.859375 -23.488281 22.960938 -22.851562 22.859375 -22.125 C 21.796875 -14.925781 20.46875 -7.785156 18.875 -0.703125 C 18.738281 -0.128906 18.441406 0.335938 17.984375 0.703125 C 17.535156 1.066406 17.007812 1.296875 16.40625 1.390625 C 15.8125 1.484375 15.242188 1.414062 14.703125 1.1875 C 14.171875 0.96875 13.773438 0.570312 13.515625 0 C 12.921875 -1.4375 12.3125 -2.863281 11.6875 -4.28125 C 11.0625 -5.695312 10.4375 -7.109375 9.8125 -8.515625 C 9.414062 -6.828125 9.035156 -5.128906 8.671875 -3.421875 C 8.304688 -1.710938 7.96875 -0.0078125 7.65625 1.6875 C 7.53125 2.4375 7.234375 2.976562 6.765625 3.3125 C 6.296875 3.65625 5.765625 3.820312 5.171875 3.8125 C 4.585938 3.800781 4.03125 3.644531 3.5 3.34375 C 2.96875 3.039062 2.550781 2.613281 2.25 2.0625 C 1.945312 1.519531 1.875 0.875 2.03125 0.125 C 3.175781 -6.082031 4.582031 -12.234375 6.25 -18.328125 C 6.40625 -18.867188 6.71875 -19.320312 7.1875 -19.6875 C 7.65625 -20.0625 8.179688 -20.300781 8.765625 -20.40625 C 9.359375 -20.507812 9.914062 -20.457031 10.4375 -20.25 C 10.957031 -20.039062 11.347656 -19.632812 11.609375 -19.03125 L 15.046875 -11.09375 C 15.460938 -13.175781 15.84375 -15.265625 16.1875 -17.359375 C 16.539062 -19.460938 16.875 -21.570312 17.1875 -23.6875 Z M 17.1875 -23.6875 "/></g></g></g><g fill="#d4d4d4" fill-opacity="1"><g transform="translate(329.874851, 155.999987)"><g><path d="M 17.734375 -16.296875 C 19.484375 -16.316406 20.828125 -15.894531 21.765625 -15.03125 C 22.703125 -14.175781 23.132812 -12.851562 23.0625 -11.0625 C 23.007812 -9.5 22.609375 -8.003906 21.859375 -6.578125 C 21.117188 -5.160156 20.109375 -4.007812 18.828125 -3.125 C 17.421875 -2.132812 15.890625 -1.613281 14.234375 -1.5625 C 12.585938 -1.507812 10.96875 -1.71875 9.375 -2.1875 C 7.445312 -2.738281 5.910156 -3.59375 4.765625 -4.75 C 3.617188 -5.90625 2.832031 -7.265625 2.40625 -8.828125 C 1.976562 -10.390625 1.847656 -12.03125 2.015625 -13.75 C 2.179688 -15.46875 2.609375 -17.175781 3.296875 -18.875 C 3.992188 -20.570312 4.890625 -22.132812 5.984375 -23.5625 C 7.078125 -25 8.332031 -26.203125 9.75 -27.171875 C 11.164062 -28.148438 12.703125 -28.78125 14.359375 -29.0625 C 16.015625 -29.351562 17.71875 -29.1875 19.46875 -28.5625 C 20.195312 -28.332031 20.71875 -27.945312 21.03125 -27.40625 C 21.34375 -26.875 21.488281 -26.300781 21.46875 -25.6875 C 21.457031 -25.082031 21.304688 -24.523438 21.015625 -24.015625 C 20.734375 -23.503906 20.320312 -23.128906 19.78125 -22.890625 C 19.25 -22.660156 18.632812 -22.675781 17.9375 -22.9375 C 16.6875 -23.351562 15.476562 -23.347656 14.3125 -22.921875 C 13.15625 -22.492188 12.101562 -21.769531 11.15625 -20.75 C 10.207031 -19.726562 9.429688 -18.570312 8.828125 -17.28125 C 8.234375 -16 7.867188 -14.695312 7.734375 -13.375 C 7.609375 -12.0625 7.789062 -10.898438 8.28125 -9.890625 C 8.570312 -9.285156 9.035156 -8.773438 9.671875 -8.359375 C 10.304688 -7.941406 11.019531 -7.648438 11.8125 -7.484375 C 12.613281 -7.316406 13.382812 -7.289062 14.125 -7.40625 C 14.863281 -7.519531 15.484375 -7.828125 15.984375 -8.328125 C 16.347656 -8.710938 16.644531 -9.179688 16.875 -9.734375 C 16.90625 -9.804688 16.925781 -9.898438 16.9375 -10.015625 C 16.945312 -10.140625 16.96875 -10.265625 17 -10.390625 C 16.96875 -10.390625 16.929688 -10.390625 16.890625 -10.390625 C 16.859375 -10.390625 16.828125 -10.390625 16.796875 -10.390625 C 16.691406 -10.390625 16.59375 -10.390625 16.5 -10.390625 C 16.414062 -10.390625 16.320312 -10.390625 16.21875 -10.390625 C 15.769531 -9.921875 15.191406 -9.628906 14.484375 -9.515625 C 13.785156 -9.398438 13.101562 -9.488281 12.4375 -9.78125 C 11.78125 -10.082031 11.304688 -10.640625 11.015625 -11.453125 C 10.628906 -12.566406 10.617188 -13.445312 10.984375 -14.09375 C 11.347656 -14.75 11.925781 -15.226562 12.71875 -15.53125 C 13.507812 -15.832031 14.367188 -16.023438 15.296875 -16.109375 C 16.222656 -16.203125 17.035156 -16.265625 17.734375 -16.296875 Z M 17.734375 -16.296875 "/></g></g></g><g clip-path="url(#5a8d5c9bee)"><path fill="#202020" d="M 114.125 126.625 C 106.046875 126.625 99.5 133.171875 99.5 141.25 C 99.5 149.328125 106.046875 155.875 114.125 155.875 C 122.203125 155.875 128.75 149.328125 128.75 141.25 C 128.75 133.171875 122.203125 126.625 114.125 126.625 Z M 114.125 141.859375 C 113.789062 141.859375 113.515625 141.585938 113.515625 141.25 C 113.515625 140.914062 113.789062 140.644531 114.125 140.644531 C 114.460938 140.644531 114.730469 140.914062 114.730469 141.25 C 114.730469 141.585938 114.460938 141.859375 114.125 141.859375 Z M 114.125 141.859375 " fill-opacity="1" fill-rule="nonzero"/><path fill="#ffffff" d="M 114.125 126.945312 C 106.222656 126.945312 99.820312 133.351562 99.820312 141.25 C 99.820312 149.152344 106.222656 155.554688 114.125 155.554688 C 122.023438 155.554688 128.429688 149.152344 128.429688 141.25 C 128.429688 133.351562 122.023438 126.945312 114.125 126.945312 Z M 114.125 141.859375 C 113.789062 141.859375 113.515625 141.585938 113.515625 141.25 C 113.515625 140.914062 113.789062 140.644531 114.125 140.644531 C 114.460938 140.644531 114.730469 140.914062 114.730469 141.25 C 114.730469 141.585938 114.460938 141.859375 114.125 141.859375 Z M 114.125 141.859375 " fill-opacity="0.05" fill-rule="nonzero"/></g><path fill="#202020" d="M 114.125 133.863281 C 110.042969 133.863281 106.738281 137.171875 106.738281 141.25 C 106.738281 145.332031 110.042969 148.636719 114.125 148.636719 C 118.203125 148.636719 121.511719 145.332031 121.511719 141.25 C 121.511719 137.171875 118.203125 133.863281 114.125 133.863281 Z M 114.125 141.859375 C 113.789062 141.859375 113.515625 141.585938 113.515625 141.25 C 113.515625 140.914062 113.789062 140.644531 114.125 140.644531 C 114.460938 140.644531 114.730469 140.914062 114.730469 141.25 C 114.730469 141.585938 114.460938 141.859375 114.125 141.859375 Z M 114.125 141.859375 " fill-opacity="1" fill-rule="nonzero"/><path fill="#e05338" d="M 114.125 136.757812 C 111.644531 136.757812 109.632812 138.769531 109.632812 141.25 C 109.632812 143.730469 111.644531 145.742188 114.125 145.742188 C 116.605469 145.742188 118.617188 143.730469 118.617188 141.25 C 118.617188 138.769531 116.605469 136.757812 114.125 136.757812 Z M 114.125 141.859375 C 113.789062 141.859375 113.515625 141.585938 113.515625 141.25 C 113.515625 140.914062 113.789062 140.644531 114.125 140.644531 C 114.460938 140.644531 114.730469 140.914062 114.730469 141.25 C 114.730469 141.585938 114.460938 141.859375 114.125 141.859375 Z M 114.125 141.859375 " fill-opacity="1" fill-rule="nonzero"/><path fill="#ffffff" d="M 114.125 145.15625 C 111.96875 145.15625 110.21875 143.402344 110.21875 141.25 C 110.21875 139.097656 111.96875 137.34375 114.125 137.34375 C 116.277344 137.34375 118.03125 139.097656 118.03125 141.25 C 118.03125 143.402344 116.277344 145.15625 114.125 145.15625 Z M 114.125 137.453125 C 112.03125 137.453125 110.328125 139.15625 110.328125 141.25 C 110.328125 143.34375 112.03125 145.046875 114.125 145.046875 C 116.21875 145.046875 117.921875 143.34375 117.921875 141.25 C 117.921875 139.15625 116.21875 137.453125 114.125 137.453125 Z M 114.125 137.453125 " fill-opacity="1" fill-rule="nonzero"/><path fill="#202020" d="M 114.125 153.332031 C 110.898438 153.332031 107.863281 152.074219 105.582031 149.792969 C 103.300781 147.511719 102.042969 144.476562 102.042969 141.25 C 102.042969 138.023438 103.300781 134.988281 105.582031 132.707031 C 107.863281 130.425781 110.898438 129.167969 114.125 129.167969 C 117.351562 129.167969 120.386719 130.425781 122.667969 132.707031 C 124.949219 134.988281 126.207031 138.023438 126.207031 141.25 C 126.207031 144.476562 124.949219 147.511719 122.667969 149.792969 C 120.386719 152.074219 117.351562 153.332031 114.125 153.332031 Z M 114.125 129.4375 C 110.96875 129.4375 108 130.664062 105.769531 132.894531 C 103.539062 135.128906 102.308594 138.09375 102.308594 141.25 C 102.308594 144.40625 103.539062 147.375 105.769531 149.605469 C 108 151.835938 110.96875 153.066406 114.125 153.066406 C 117.28125 153.066406 120.246094 151.835938 122.480469 149.605469 C 124.710938 147.375 125.9375 144.40625 125.9375 141.25 C 125.9375 138.09375 124.710938 135.128906 122.480469 132.894531 C 120.246094 130.664062 117.28125 129.4375 114.125 129.4375 Z M 114.125 129.4375 " fill-opacity="1" fill-rule="nonzero"/><path fill="#202020" d="M 114.125 154.125 C 110.6875 154.125 107.453125 152.785156 105.019531 150.355469 C 102.589844 147.921875 101.25 144.6875 101.25 141.25 C 101.25 137.8125 102.589844 134.578125 105.019531 132.148438 C 107.453125 129.714844 110.6875 128.378906 114.125 128.378906 C 117.5625 128.378906 120.796875 129.714844 123.226562 132.148438 C 125.660156 134.578125 126.996094 137.8125 126.996094 141.25 C 126.996094 144.6875 125.660156 147.921875 123.226562 150.355469 C 120.796875 152.785156 117.5625 154.125 114.125 154.125 Z M 114.125 128.644531 C 110.757812 128.644531 107.589844 129.957031 105.210938 132.335938 C 102.828125 134.71875 101.519531 137.882812 101.519531 141.25 C 101.519531 144.617188 102.828125 147.785156 105.210938 150.164062 C 107.589844 152.546875 110.757812 153.855469 114.125 153.855469 C 117.492188 153.855469 120.65625 152.546875 123.039062 150.164062 C 125.417969 147.785156 126.730469 144.617188 126.730469 141.25 C 126.730469 137.882812 125.417969 134.71875 123.039062 132.335938 C 120.65625 129.957031 117.492188 128.644531 114.125 128.644531 Z M 114.125 128.644531 " fill-opacity="1" fill-rule="nonzero"/><path fill="#202020" d="M 114.125 150.617188 C 108.960938 150.617188 104.757812 146.414062 104.757812 141.25 C 104.757812 136.085938 108.960938 131.882812 114.125 131.882812 C 119.289062 131.882812 123.492188 136.085938 123.492188 141.25 C 123.492188 146.414062 119.289062 150.617188 114.125 150.617188 Z M 114.125 132.214844 C 109.140625 132.214844 105.085938 136.265625 105.085938 141.25 C 105.085938 146.234375 109.140625 150.289062 114.125 150.289062 C 119.109375 150.289062 123.160156 146.234375 123.160156 141.25 C 123.160156 136.265625 119.109375 132.214844 114.125 132.214844 Z M 114.125 132.214844 " fill-opacity="1" fill-rule="nonzero"/><path fill="#202020" d="M 114.125 149.5 C 109.574219 149.5 105.875 145.800781 105.875 141.25 C 105.875 136.703125 109.574219 133 114.125 133 C 118.671875 133 122.375 136.703125 122.375 141.25 C 122.375 145.800781 118.671875 149.5 114.125 149.5 Z M 114.125 133.550781 C 109.878906 133.550781 106.425781 137.003906 106.425781 141.25 C 106.425781 145.496094 109.878906 148.949219 114.125 148.949219 C 118.371094 148.949219 121.824219 145.496094 121.824219 141.25 C 121.824219 137.003906 118.371094 133.550781 114.125 133.550781 Z M 114.125 133.550781 " fill-opacity="1" fill-rule="nonzero"/><path fill="#202020" d="M 114.125 151.71875 C 108.351562 151.71875 103.65625 147.023438 103.65625 141.25 C 103.65625 135.480469 108.351562 130.785156 114.125 130.785156 C 119.894531 130.785156 124.589844 135.480469 124.589844 141.25 C 124.589844 147.023438 119.894531 151.71875 114.125 151.71875 Z M 114.125 131.035156 C 108.492188 131.035156 103.90625 135.617188 103.90625 141.25 C 103.90625 146.882812 108.492188 151.46875 114.125 151.46875 C 119.757812 151.46875 124.339844 146.882812 124.339844 141.25 C 124.339844 135.617188 119.757812 131.035156 114.125 131.035156 Z M 114.125 131.035156 " fill-opacity="1" fill-rule="nonzero"/></svg>